<?xml version="1.0" standalone="no"?>
<!DOCTYPE svg PUBLIC "-//W3C//DTD SVG 1.1//EN" "http://www.w3.org/Graphics/SVG/1.1/DTD/svg11.dtd" >
<svg>
<metadata>
Created by FontForge 20110222 at Wed Jun  4 16:25:59 2014
 By deploy user
Copyright (c) 1988, 1990, 1993, 2003 Linotype Library GmbH, www.linotype.com. All rights reserved. Copyright (c) 1988, 1990, 1993 Adobe Systems Incorporated. All Rights Reserved.
</metadata>
<defs>
<font id="HelveticaNeueLTPro-UltLtCn" horiz-adv-x="130" >
  <font-face 
    font-family="HelveticaNeueLT Pro 27 UltLtCn"
    font-weight="275"
    font-stretch="normal"
    units-per-em="1000"
    panose-1="2 11 3 6 2 2 2 3 2 4"
    ascent="714"
    descent="-286"
    x-height="516"
    cap-height="714"
    bbox="-166 -219 1000 1396"
    underline-thickness="50"
    underline-position="-50"
    unicode-range="U+000D-FB02"
  />
<missing-glyph horiz-adv-x="512" 
d="M222 117h56v67h-56v-67zM225 234h46q0 52 6 72q6 19 43 52q37 34 50 60t13 60q0 59 -35 95t-89 36q-56 0 -92 -34t-43 -103l50 -8q11 95 82 95q31 0 53.5 -24.5t22.5 -60.5q0 -20 -9.5 -37t-40.5 -46q-31 -31 -46 -59q-13 -25 -13 -81zM462 50h-412v617h412v-617z
M512 718h-512v-718h512v718z" />
    <glyph glyph-name="IJ" unicode="IJ" horiz-adv-x="554" 
d="M64 0v714h20v-714h-20zM476 158v556h20v-559q0 -85 -40.5 -126t-111.5 -41q-83 0 -121 51t-38 132v40h20v-45q0 -77 35.5 -118.5t102.5 -41.5q133 0 133 152z" />
    <glyph glyph-name="ij" unicode="ij" horiz-adv-x="278" 
d="M55 616v98h20v-98h-20zM55 0v516h20v-516h-20zM203 616v98h20v-98h-20zM203 -75v591h20v-589q0 -57 -22 -80t-68 -23h-13q-10 0 -13 1v18q5 -1 15 -1h12q39 0 54 18t15 65z" />
    <glyph glyph-name="napostrophe" unicode="&#x22;n" horiz-adv-x="389" 
d="M51 0v516h20v-93h2q7 38 44 71.5t88 33.5q133 0 133 -157v-371h-20v369q0 79 -30.5 110t-82.5 31q-20 0 -40.5 -8t-43 -26.5t-36.5 -56.5t-14 -90v-329h-20zM40 703v77h20v-79q0 -25 -9 -38t-33 -17v18q14 4 18 11.5t4 27.5z" />
    <glyph glyph-name="fi" unicode="fi" horiz-adv-x="315" 
d="M78 0v498h-67v18h67v92q0 60 22 82q13 13 27.5 18.5t46.5 5.5h10q8 0 11 -1v-18q-5 1 -13 1h-13q-39 0 -55 -19t-16 -67v-94h88v-18h-88v-498h-20zM240 615v99h20v-99h-20zM240 0v516h20v-516h-20z" />
    <glyph glyph-name="fl" unicode="fl" horiz-adv-x="315" 
d="M78 0v498h-67v18h67v92q0 60 22 82q13 13 27.5 18.5t46.5 5.5h10q8 0 11 -1v-18q-5 1 -13 1h-13q-39 0 -55 -19t-16 -67v-94h88v-18h-88v-498h-20zM240 0v714h20v-714h-20z" />
    <glyph glyph-name=".notdef" horiz-adv-x="512" 
d="M222 117h56v67h-56v-67zM225 234h46q0 52 6 72q6 19 43 52q37 34 50 60t13 60q0 59 -35 95t-89 36q-56 0 -92 -34t-43 -103l50 -8q11 95 82 95q31 0 53.5 -24.5t22.5 -60.5q0 -20 -9.5 -37t-40.5 -46q-31 -31 -46 -59q-13 -25 -13 -81zM462 50h-412v617h412v-617z
M512 718h-512v-718h512v718z" />
    <glyph glyph-name=".null" horiz-adv-x="500" 
 />
    <glyph glyph-name=".null" horiz-adv-x="500" 
 />
    <glyph glyph-name="nonmarkingreturn" horiz-adv-x="333" 
 />
    <glyph glyph-name="CR" unicode="&#xd;" horiz-adv-x="0" 
 />
    <glyph glyph-name="space" unicode=" " horiz-adv-x="240" 
 />
    <glyph glyph-name="exclam" unicode="!" horiz-adv-x="204" 
d="M92 182v532h20v-532h-20zM92 0v98h20v-98h-20z" />
    <glyph glyph-name="quotedbl" unicode="&#x22;" horiz-adv-x="259" 
d="M164 495v219h20v-219h-20zM75 495v219h20v-219h-20z" />
    <glyph glyph-name="numbersign" unicode="#" horiz-adv-x="480" 
d="M165 444l-26 -192h176l26 192h-176zM83 0l33 234h-94v18h97l26 192h-94v18h97l33 234h20l-33 -234h176l33 234h20l-33 -234h94v-18h-97l-26 -192h94v-18h-97l-33 -234h-20l33 234h-176l-33 -234h-20z" />
    <glyph glyph-name="dollar" unicode="$" horiz-adv-x="480" 
d="M229 -94v82q-93 2 -141 57.5t-48 136.5v30h20v-30q0 -80 44.5 -127t124.5 -49v350q-88 28 -130 64.5t-42 113.5q0 27 9 55t27.5 55t53.5 44.5t82 19.5v59h20v-59q92 -2 135 -53t43 -122v-14h-20v16q0 71 -42.5 112t-115.5 43v-321q32 -11 40.5 -14t36.5 -15t38 -19
t29 -22.5t26 -30.5t14 -37.5t7 -48.5q0 -48 -18 -89t-63 -72t-110 -33v-82h-20zM229 376v314q-73 -4 -112.5 -50t-39.5 -110q0 -34 11.5 -60t35.5 -43.5t46.5 -28t58.5 -22.5zM249 349v-343q74 4 122.5 50t48.5 131q0 37 -13.5 64.5t-42.5 46t-52 28.5t-63 23z" />
    <glyph glyph-name="percent" unicode="%" horiz-adv-x="648" 
d="M164 -18l298 732h20l-298 -732h-20zM571 159q0 73 -20.5 113.5t-79.5 40.5q-100 0 -100 -154q0 -153 100 -153q51 0 75.5 42.5t24.5 110.5zM351 159q0 84 32 128t88 44q124 0 120 -172q-1 -50 -13 -86t-31.5 -53.5t-38 -24.5t-37.5 -7q-120 0 -120 171zM57 536
q0 84 32 128t88 44q124 0 120 -172q-1 -50 -13 -86t-31.5 -53.5t-38 -24.5t-37.5 -7q-120 0 -120 171zM277 536q0 73 -20.5 113.5t-79.5 40.5q-100 0 -100 -154q0 -153 100 -153q51 0 75.5 42.5t24.5 110.5z" />
    <glyph glyph-name="ampersand" unicode="&#x26;" horiz-adv-x="519" 
d="M400 131l-183 257l-67 -52q-57 -43 -81 -81.5t-24 -92.5q0 -74 50.5 -115t114.5 -41q66 0 111 31.5t79 93.5zM237 690q-42 0 -73.5 -28.5t-31.5 -75.5q0 -51 89 -171q64 46 92.5 87.5t28.5 89.5q0 43 -28 70.5t-77 27.5zM137 351l68 53q-2 3 -15.5 21.5t-17 23.5
t-15 21.5t-15.5 24.5t-11.5 22.5t-10.5 24.5t-5.5 23t-2.5 25q0 46 35 82t93 36q54 0 88 -34t34 -85q0 -98 -130 -190l177 -248q16 44 24 130h20q-10 -102 -30 -149l94 -132h-23l-82 112q-70 -124 -203 -124q-84 0 -134 51.5t-50 123.5q0 56 26 99.5t86 88.5z" />
    <glyph glyph-name="quotesingle" unicode="'" horiz-adv-x="168" 
d="M74 495v219h20v-219h-20z" />
    <glyph glyph-name="parenleft" unicode="(" horiz-adv-x="204" 
d="M200 -184h-20q-116 217 -116 439q0 138 30.5 246t85.5 213h20q-116 -216 -116 -459q0 -115 27 -217t89 -222z" />
    <glyph glyph-name="parenright" unicode=")" horiz-adv-x="204" 
d="M24 -184h-20q116 216 116 459q0 115 -27 217t-89 222h20q116 -217 116 -439q0 -138 -30.5 -246t-85.5 -213z" />
    <glyph glyph-name="asterisk" unicode="*" horiz-adv-x="278" 
d="M129 714h20v-97l80 35l10 -18l-85 -34l60 -80l-15 -12l-60 80l-60 -80l-15 12l60 80l-85 34l10 18l80 -35v97z" />
    <glyph glyph-name="plus" unicode="+" horiz-adv-x="600" 
d="M290 0v244h-243v18h243v244h20v-244h243v-18h-243v-244h-20z" />
    <glyph glyph-name="comma" unicode="," horiz-adv-x="240" 
d="M110 -3v101h20v-103q0 -79 -42 -116v31q0 1 4.5 8t8 14.5t6.5 25t3 39.5z" />
    <glyph glyph-name="hyphen" unicode="-" horiz-adv-x="296" 
d="M231 263h-166v18h166v-18z" />
    <glyph glyph-name="period" unicode="." horiz-adv-x="240" 
d="M110 0v98h20v-98h-20z" />
    <glyph glyph-name="slash" unicode="/" horiz-adv-x="278" 
d="M-4 -12l266 738h20l-266 -738h-20z" />
    <glyph glyph-name="zero" unicode="0" horiz-adv-x="480" 
d="M65 348q0 -80 7.5 -138t26 -106.5t54 -73t87.5 -24.5t87.5 24.5t54 73t26 106.5t7.5 138q0 175 -38.5 258.5t-136.5 83.5q-96 0 -135.5 -85.5t-39.5 -256.5zM435 348q0 -183 -44 -271.5t-151 -88.5t-151 88.5t-44 271.5q0 83 8.5 144.5t29.5 112.5t60.5 77t96.5 26
q58 0 97.5 -25.5t60 -76.5t29 -112t8.5 -146z" />
    <glyph glyph-name="one" unicode="1" horiz-adv-x="480" 
d="M250 0v690h-2q-22 -42 -77 -80.5t-98 -42.5v18q101 27 169 123h28v-708h-20z" />
    <glyph glyph-name="two" unicode="2" horiz-adv-x="480" 
d="M432 0h-384q0 62 18 105.5t56 86.5q20 24 114.5 96t103.5 83q34 39 49.5 73.5t15.5 80.5q0 73 -42 119t-118 46q-82 0 -125.5 -56.5t-43.5 -137.5h-20q0 96 51.5 154t135.5 58t133 -49.5t49 -137.5q0 -56 -26.5 -103t-66 -78.5t-86 -67t-86 -67.5t-66 -80.5t-26.5 -106.5
h364v-18z" />
    <glyph glyph-name="three" unicode="3" horiz-adv-x="480" 
d="M203 361v18h24q76 0 120 38.5t44 116.5q0 74 -41.5 115t-111.5 41q-66 0 -113.5 -41.5t-47.5 -124.5h-20q0 84 50 134t132 50q81 0 126.5 -47t45.5 -127q0 -70 -34.5 -110.5t-85.5 -51.5v-2q69 -14 106 -59.5t37 -115.5q0 -97 -55 -152t-149 -55q-80 0 -132 54t-52 138
h20q0 -79 46.5 -126.5t117.5 -47.5q90 0 137 51.5t47 138.5q0 86 -55.5 125.5t-132.5 39.5h-23z" />
    <glyph glyph-name="four" unicode="4" horiz-adv-x="480" 
d="M339 0v201h-305v18l303 489h22v-489h87v-18h-87v-201h-20zM339 219v456h-2l-283 -456h285z" />
    <glyph glyph-name="five" unicode="5" horiz-adv-x="480" 
d="M56 337l40 359h299v-18h-281l-36 -309h2q51 94 159 94q85 0 140 -58.5t55 -169.5t-53 -179t-150 -68q-80 0 -131.5 49.5t-53.5 139.5h20q1 -79 46 -125t119 -46q77 0 130 55.5t53 174.5q0 100 -48.5 154.5t-126.5 54.5q-43 0 -87.5 -24t-69.5 -84h-26z" />
    <glyph glyph-name="six" unicode="6" horiz-adv-x="480" 
d="M416 551h-20q-4 64 -41.5 101.5t-101.5 37.5q-72 0 -115 -46q-39 -43 -56.5 -124t-17.5 -230h2q9 67 54.5 114.5t121.5 47.5q96 0 145 -62t49 -165q0 -116 -56.5 -176.5t-138.5 -60.5q-40 0 -73 14.5t-62 47t-45.5 93.5t-16.5 146q0 155 20.5 242.5t67.5 131.5
q48 45 120 45q75 0 117.5 -44t46.5 -113zM416 222q0 93 -41 152.5t-130 59.5q-58 0 -98.5 -32.5t-57 -79.5t-16.5 -102q0 -89 42.5 -151.5t125.5 -62.5q86 0 130.5 64t44.5 152z" />
    <glyph glyph-name="seven" unicode="7" horiz-adv-x="480" 
d="M48 696h384v-25q-114 -132 -191.5 -316t-89.5 -355h-20q6 165 91 363.5t190 314.5h-364v18z" />
    <glyph glyph-name="eight" unicode="8" horiz-adv-x="480" 
d="M240 371q-74 0 -124.5 -48t-50.5 -136q0 -72 44 -126.5t131 -54.5t131 54.5t44 126.5q0 88 -50.5 136t-124.5 48zM88 538q0 -70 40 -109.5t113 -39.5q69 0 111 41.5t42 107.5q0 69 -39 110.5t-114 41.5q-69 0 -111 -43.5t-42 -108.5zM240 -12q-93 0 -144 57t-51 150
q0 71 43 124t99 59v2q-51 6 -85 50t-34 106q0 74 47 123t126 49q81 0 127 -46.5t46 -121.5q0 -127 -119 -160l-2 -2q56 -6 99 -59t43 -124q0 -93 -51 -150t-144 -57z" />
    <glyph glyph-name="nine" unicode="9" horiz-adv-x="480" 
d="M64 145h20q4 -64 41.5 -101.5t101.5 -37.5q72 0 115 46q39 43 56.5 124t17.5 230h-2q-9 -67 -54.5 -114.5t-121.5 -47.5q-96 0 -145 62t-49 165q0 116 56.5 176.5t138.5 60.5q40 0 73 -14.5t62 -47t45.5 -93.5t16.5 -146q0 -155 -20.5 -242.5t-67.5 -131.5
q-48 -45 -120 -45q-74 0 -118 44.5t-46 112.5zM64 474q0 -93 41 -152.5t130 -59.5q58 0 98.5 32.5t57 79.5t16.5 102q0 89 -42.5 151.5t-125.5 62.5q-86 0 -130.5 -64t-44.5 -152z" />
    <glyph glyph-name="colon" unicode=":" horiz-adv-x="240" 
d="M110 0v98h20v-98h-20zM110 394v98h20v-98h-20z" />
    <glyph glyph-name="semicolon" unicode=";" horiz-adv-x="240" 
d="M110 394v98h20v-98h-20zM110 -3v101h20v-103q0 -79 -42 -116v31q0 1 4.5 8t8 14.5t6.5 25t3 39.5z" />
    <glyph glyph-name="semicolon" unicode="&#x37e;" horiz-adv-x="240" 
d="M110 394v98h20v-98h-20zM110 -3v101h20v-103q0 -79 -42 -116v31q0 1 4.5 8t8 14.5t6.5 25t3 39.5z" />
    <glyph glyph-name="less" unicode="&#x3c;" horiz-adv-x="600" 
d="M47 244v18l506 252v-18l-486 -243l486 -243v-18z" />
    <glyph glyph-name="equal" unicode="=" horiz-adv-x="600" 
d="M553 147h-506v18h506v-18zM553 341h-506v18h506v-18z" />
    <glyph glyph-name="greater" unicode="&#x3e;" horiz-adv-x="600" 
d="M47 -8v18l486 243l-486 243v18l506 -252v-18z" />
    <glyph glyph-name="question" unicode="?" horiz-adv-x="407" 
d="M182 0v98h20v-98h-20zM182 182v67q0 39 18 72.5t43.5 58.5t51 50.5t43.5 62t18 79.5q0 65 -43 100.5t-105 35.5t-109.5 -44.5t-47.5 -134.5v-23h-20v22q0 94 51.5 146t125.5 52q78 0 123 -43.5t45 -111.5q0 -52 -20.5 -90t-77.5 -95q-45 -43 -60.5 -72.5t-15.5 -75.5v-56
h-20z" />
    <glyph glyph-name="at" unicode="@" horiz-adv-x="800" 
d="M553 492l21 66h20l-95 -320q-8 -32 -8 -51q0 -15 12 -25t30 -8q82 0 149 83.5t67 178.5q0 70 -29 127t-76.5 92t-105 54t-118.5 19q-153 0 -261 -102.5t-108 -248.5t108 -248.5t261 -102.5q100 0 185.5 48.5t123.5 115.5h24q-48 -84 -139.5 -133t-193.5 -49
q-161 0 -275 108t-114 261t114 261t275 108q146 0 247.5 -87t101.5 -220q0 -109 -74 -197t-163 -88q-26 0 -43.5 15.5t-17.5 40.5q0 18 9 47h-2q-57 -103 -154 -103q-61 0 -99 41.5t-38 99.5q0 73 28 141t85.5 115t129.5 47q46 0 79.5 -23t41.5 -63h2zM207 275
q0 -54 34.5 -88.5t91.5 -34.5q45 0 85.5 37t65 88.5t39 99.5t14.5 75q0 55 -31.5 81.5t-75.5 26.5q-96 0 -159.5 -87t-63.5 -198z" />
    <glyph glyph-name="A" unicode="A" horiz-adv-x="481" 
d="M381 250l-139 446h-2l-139 -446h280zM2 0l227 714h24l226 -714h-20l-73 232h-291l-73 -232h-20z" />
    <glyph glyph-name="B" unicode="B" horiz-adv-x="481" 
d="M58 0v714h182q89 0 136.5 -44.5t47.5 -121.5q0 -161 -134 -173v-2q74 -2 115 -51t41 -126q0 -95 -52.5 -145.5t-146.5 -50.5h-189zM78 364v-346h152q99 0 147.5 43.5t48.5 133.5q0 169 -185 169h-163zM78 696v-314h152q83 0 128.5 35t45.5 125q0 154 -165 154h-161z" />
    <glyph glyph-name="C" unicode="C" horiz-adv-x="500" 
d="M456 237h20q-5 -49 -18 -90t-36.5 -78.5t-63.5 -59t-92 -21.5q-54 0 -95 22t-66 57t-40.5 84.5t-21 99t-5.5 106.5t5.5 106.5t21 99t40.5 84.5t66 57t95 22t94 -21t61 -55t31.5 -68.5t12.5 -71.5h-20q-4 87 -49 142.5t-129 55.5q-209 0 -209 -351t209 -351
q42 0 75.5 17.5t53 42t33 58.5t19 59.5t8.5 53.5z" />
    <glyph glyph-name="D" unicode="D" horiz-adv-x="500" 
d="M78 696v-678h133q231 0 231 351q0 168 -49.5 247.5t-170.5 79.5h-144zM58 0v714h172q68 0 115 -26.5t72 -76t35 -107.5t10 -135q0 -107 -19.5 -181t-56.5 -114t-82 -57t-104 -17h-142z" />
    <glyph glyph-name="E" unicode="E" horiz-adv-x="407" 
d="M58 0v714h325v-18h-305v-314h283v-18h-283v-346h313v-18h-333z" />
    <glyph glyph-name="F" unicode="F" horiz-adv-x="389" 
d="M58 0v714h325v-18h-305v-314h283v-18h-283v-364h-20z" />
    <glyph glyph-name="G" unicode="G" horiz-adv-x="519" 
d="M456 0v155h-2q-17 -72 -65 -119.5t-123 -47.5q-54 0 -95 22t-66 57t-40.5 84.5t-21 99t-5.5 106.5t5.5 106.5t21 99t40.5 84.5t66 57t95 22t94 -21t61 -55t31.5 -68.5t12.5 -71.5h-20q-4 89 -49 143.5t-129 54.5q-209 0 -209 -351t209 -351q32 0 61.5 12.5t59 42t48 87.5
t20.5 138v42h-222v18h242v-346h-20z" />
    <glyph glyph-name="H" unicode="H" horiz-adv-x="500" 
d="M58 0v714h20v-324h344v324h20v-714h-20v372h-344v-372h-20z" />
    <glyph glyph-name="I" unicode="I" horiz-adv-x="148" 
d="M64 0v714h20v-714h-20z" />
    <glyph glyph-name="J" unicode="J" horiz-adv-x="389" 
d="M311 158v556h20v-559q0 -85 -40.5 -126t-111.5 -41q-83 0 -121 51t-38 132v40h20v-45q0 -77 35.5 -118.5t102.5 -41.5q133 0 133 152z" />
    <glyph glyph-name="K" unicode="K" horiz-adv-x="444" 
d="M58 0v714h20v-421h2l318 421h23l-229 -301l249 -413h-21l-240 398l-102 -135v-263h-20z" />
    <glyph glyph-name="L" unicode="L" horiz-adv-x="407" 
d="M58 0v714h20v-696h305v-18h-325z" />
    <glyph glyph-name="M" unicode="M" horiz-adv-x="630" 
d="M55 0v714h33l227 -682h2l226 682h32v-714h-20v688l-2 2v-2l-226 -688h-24l-226 688h-2v-688h-20z" />
    <glyph glyph-name="N" unicode="N" horiz-adv-x="500" 
d="M53 0v714h33l339 -682h2v682h20v-714h-29l-343 696h-2v-696h-20z" />
    <glyph glyph-name="O" unicode="O" horiz-adv-x="537" 
d="M58 357q0 -351 209 -351q212 0 212 351t-212 351q-209 0 -209 -351zM499 357q0 -30 -0.5 -50.5t-5 -62.5t-12.5 -72t-24.5 -67.5t-39.5 -60.5t-60 -39.5t-84 -16.5q-67 0 -115 32t-73 87.5t-36 116.5t-11 133q0 56 6 106t22 99.5t41 84.5t65.5 57t93.5 22q47 0 84 -16
t61 -40t41.5 -60.5t26 -68t13.5 -71.5t6 -63t1 -50z" />
    <glyph glyph-name="P" unicode="P" horiz-adv-x="463" 
d="M78 696v-350h154q31 0 59.5 9t55 28t42.5 55.5t16 86.5q0 76 -40.5 123.5t-116.5 47.5h-170zM58 0v714h196q75 0 123 -51t48 -139q0 -99 -58 -147.5t-137 -48.5h-152v-328h-20z" />
    <glyph glyph-name="Q" unicode="Q" horiz-adv-x="537" 
d="M319 170l91 -98q69 87 69 285q0 351 -212 351q-209 0 -209 -351t209 -351q82 0 131 52l-94 101zM485 -37l-75 82q-54 -57 -144 -57q-54 0 -95 22t-66 57t-40.5 84.5t-21 99t-5.5 106.5q0 56 6 106t22 99.5t41 84.5t65.5 57t93.5 22q47 0 84 -16t61 -40t41.5 -60.5t26 -68
t13.5 -71.5t6 -63t1 -50q0 -204 -77 -298l77 -82z" />
    <glyph glyph-name="R" unicode="R" horiz-adv-x="481" 
d="M58 0v714h193q79 0 129.5 -42.5t50.5 -144.5q0 -79 -38 -124.5t-105 -53.5v-2q81 -10 108.5 -54.5t29.5 -143.5q2 -83 4.5 -104t12.5 -45h-20q-6 14 -8.5 23.5t-5 39.5t-3.5 88q-4 114 -40.5 150t-142.5 36h-145v-337h-20zM78 696v-341h137q196 0 196 172q0 169 -162 169
h-171z" />
    <glyph glyph-name="S" unicode="S" horiz-adv-x="463" 
d="M31 187v31h20v-31q0 -83 46 -132t129 -49q81 0 133.5 47t52.5 139q0 39 -14 67.5t-44 48t-52.5 29t-64.5 22.5q-48 15 -76.5 27.5t-57 33.5t-41.5 52.5t-13 75.5q0 28 9.5 57t29.5 57.5t57.5 46t87.5 17.5q96 0 141 -53t45 -126v-15h-20v17q0 75 -45 117t-123 42
q-77 0 -119.5 -48.5t-42.5 -115.5q0 -45 20 -76.5t52 -48.5t70.5 -30.5t77.5 -27.5t71 -33.5t52 -55t20 -85.5q0 -80 -51.5 -139.5t-153.5 -59.5q-98 0 -147 57.5t-49 141.5z" />
    <glyph glyph-name="T" unicode="T" horiz-adv-x="408" 
d="M194 0v696h-194v18h408v-18h-194v-696h-20z" />
    <glyph glyph-name="U" unicode="U" horiz-adv-x="481" 
d="M432 714v-521q0 -99 -49.5 -152t-142.5 -53q-91 0 -141 53t-50 152v521h20v-518q0 -190 171 -190q172 0 172 190v518h20z" />
    <glyph glyph-name="V" unicode="V" horiz-adv-x="444" 
d="M208 0l-202 714h20l194 -682h2l196 682h20l-204 -714h-26z" />
    <glyph glyph-name="W" unicode="W" horiz-adv-x="704" 
d="M174 0l-159 714h20l151 -682h2l150 682h28l147 -682h2l154 682h20l-162 -714h-26l-149 688h-2l-151 -688h-25z" />
    <glyph glyph-name="X" unicode="X" horiz-adv-x="444" 
d="M6 0l206 369l-193 345h21l183 -327l183 327h20l-192 -345l205 -369h-21l-196 351l-196 -351h-20z" />
    <glyph glyph-name="Y" unicode="Y" horiz-adv-x="426" 
d="M203 0v301l-200 413h21l189 -392l190 392h20l-200 -413v-301h-20z" />
    <glyph glyph-name="Z" unicode="Z" horiz-adv-x="444" 
d="M20 0v20l382 676h-360v18h380v-20l-382 -676h384v-18h-404z" />
    <glyph glyph-name="bracketleft" unicode="[" horiz-adv-x="204" 
d="M78 -184v898h115v-18h-95v-862h95v-18h-115z" />
    <glyph glyph-name="backslash" unicode="\" horiz-adv-x="278" 
d="M16 726l266 -738h-20l-266 738h20z" />
    <glyph glyph-name="bracketright" unicode="]" horiz-adv-x="204" 
d="M106 -166v862h-95v18h115v-898h-115v18h95z" />
    <glyph glyph-name="asciicircum" unicode="^" horiz-adv-x="600" 
d="M61 243l231 453h16l231 -453h-18l-221 435l-221 -435h-18z" />
    <glyph glyph-name="underscore" unicode="_" horiz-adv-x="500" 
d="M0 -125v50h500v-50h-500z" />
    <glyph glyph-name="grave" unicode="`" 
d="M82 591l-83 139h20l83 -139h-20z" />
    <glyph glyph-name="a" unicode="a" horiz-adv-x="370" 
d="M297 189v117q-21 -25 -135 -47q-61 -12 -87 -42t-26 -84q0 -63 31.5 -95t82.5 -32q49 0 91.5 45.5t42.5 137.5zM29 135q0 114 123 138q79 16 105 26q22 7 31 25.5t9 61.5q0 58 -20 85q-29 39 -87 39q-121 0 -121 -137h-20v17q0 57 35.5 97.5t105.5 40.5q55 0 91 -31.5
t36 -92.5v-339q0 -49 30 -47q6 0 20 2v-18q-10 -2 -14 -2h-10q-23 0 -34.5 13.5t-11.5 53.5v20h-2q-18 -46 -52.5 -72.5t-82.5 -26.5q-62 0 -96.5 39t-34.5 108z" />
    <glyph glyph-name="b" unicode="b" horiz-adv-x="407" 
d="M71 258q0 -124 36.5 -188t98.5 -64q144 0 144 261q0 243 -140 243q-65 0 -102 -63.5t-37 -188.5zM51 0v714h20v-302h3q37 116 136 116q160 0 160 -265q0 -139 -42.5 -207t-119.5 -68q-101 0 -134 123h-3v-111h-20z" />
    <glyph glyph-name="c" unicode="c" horiz-adv-x="370" 
d="M348 373h-20q-2 56 -35.5 96.5t-90.5 40.5q-145 0 -145 -252t145 -252q45 0 76 29t42 63t13 70h20q-4 -78 -45 -129t-106 -51q-86 0 -125.5 70.5t-39.5 214.5q0 255 165 255q64 0 105 -46.5t41 -108.5z" />
    <glyph glyph-name="d" unicode="d" horiz-adv-x="407" 
d="M336 258q0 126 -37 189t-102 63q-140 0 -140 -243q0 -261 144 -261q62 0 98.5 64t36.5 188zM336 0v111h-3q-33 -123 -134 -123q-77 0 -119.5 68t-42.5 207q0 265 160 265q93 0 136 -116h3v302h20v-714h-20z" />
    <glyph glyph-name="e" unicode="e" horiz-adv-x="389" 
d="M57 287h280v35q0 46 -9.5 85t-41.5 71t-84 32q-139 0 -145 -223zM357 269h-300q0 -126 33 -194.5t112 -68.5q45 0 76 29t42 63t13 70h20q-4 -78 -45 -129t-106 -51q-86 0 -125.5 70.5t-39.5 214.5q0 255 165 255q57 0 93 -32.5t49 -80t13 -110.5v-36z" />
    <glyph glyph-name="f" unicode="f" horiz-adv-x="185" 
d="M78 0v498h-67v18h67v92q0 60 22 82q13 13 27.5 18.5t46.5 5.5h10q7 0 10 -1v-18q-4 1 -12 1h-13q-39 0 -55 -19t-16 -67v-94h88v-18h-88v-498h-20z" />
    <glyph glyph-name="g" unicode="g" horiz-adv-x="407" 
d="M329 274q0 236 -136 236t-136 -239q0 -253 132 -253q66 0 103 57t37 199zM329 -2v120h-2q-24 -118 -139 -118q-151 0 -151 266q0 262 158 262q60 0 92 -34.5t40 -75.5h2v98h20v-519q0 -181 -151 -181q-24 0 -45 5.5t-42 18.5t-34.5 40t-15.5 65h20q3 -54 33 -82.5
t84 -28.5q131 0 131 164z" />
    <glyph glyph-name="h" unicode="h" horiz-adv-x="389" 
d="M51 0v714h20v-291h2q7 38 44 71.5t88 33.5q133 0 133 -157v-371h-20v369q0 79 -30.5 110t-82.5 31q-20 0 -40.5 -8t-43 -26.5t-36.5 -56.5t-14 -90v-329h-20z" />
    <glyph glyph-name="i" unicode="i" 
d="M55 616v98h20v-98h-20zM55 0v516h20v-516h-20z" />
    <glyph glyph-name="j" unicode="j" 
d="M55 616v98h20v-98h-20zM55 -75v591h20v-589q0 -57 -22 -80t-68 -23h-13q-10 0 -13 1v18q5 -1 15 -1h12q39 0 54 18t15 65z" />
    <glyph glyph-name="k" unicode="k" horiz-adv-x="352" 
d="M51 0v714h20v-487l244 289h26l-162 -191l191 -325h-23l-182 310l-94 -111v-199h-20z" />
    <glyph glyph-name="l" unicode="l" 
d="M55 0v714h20v-714h-20z" />
    <glyph glyph-name="m" unicode="m" horiz-adv-x="612" 
d="M55 0v516h20v-83h2q12 41 44.5 68t78.5 27q97 0 112 -101h2q10 39 41.5 70t80.5 31q61 0 91 -37.5t30 -97.5v-393h-20v393q0 60 -29 88.5t-67 28.5q-59 0 -92 -47.5t-33 -123.5v-339h-20v389q0 53 -22.5 87t-72.5 34q-55 0 -90.5 -47.5t-35.5 -141.5v-321h-20z" />
    <glyph glyph-name="n" unicode="n" horiz-adv-x="389" 
d="M51 0v516h20v-93h2q7 38 44 71.5t88 33.5q133 0 133 -157v-371h-20v369q0 79 -30.5 110t-82.5 31q-20 0 -40.5 -8t-43 -26.5t-36.5 -56.5t-14 -90v-329h-20z" />
    <glyph glyph-name="o" unicode="o" horiz-adv-x="407" 
d="M57 258q0 -252 147 -252q77 0 111.5 62t34.5 190t-34.5 190t-111.5 62q-147 0 -147 -252zM204 -12q-167 0 -167 270t167 270q166 0 166 -270t-166 -270z" />
    <glyph glyph-name="p" unicode="p" horiz-adv-x="407" 
d="M71 258q0 -126 37 -189t102 -63q140 0 140 243q0 56 -6 99t-20.5 81.5t-43 59.5t-69.5 21q-66 0 -103 -63.5t-37 -188.5zM51 -176v692h20v-111h3q33 123 136 123q160 0 160 -275q0 -265 -160 -265q-53 0 -87 33t-49 83h-3v-280h-20z" />
    <glyph glyph-name="q" unicode="q" horiz-adv-x="407" 
d="M57 249q0 -243 140 -243q65 0 102 63t37 189q0 125 -37 188.5t-103 63.5q-41 0 -69.5 -21t-43 -59.5t-20.5 -81.5t-6 -99zM336 -176v280h-3q-41 -116 -136 -116q-160 0 -160 265q0 275 160 275q103 0 136 -123h3v111h20v-692h-20z" />
    <glyph glyph-name="r" unicode="r" horiz-adv-x="222" 
d="M51 0v516h20v-93h2q7 38 44 71.5t88 33.5h20v-18h-20q-20 0 -40.5 -8t-43 -26.5t-36.5 -56.5t-14 -90v-329h-20z" />
    <glyph glyph-name="s" unicode="s" horiz-adv-x="333" 
d="M169 -12q-144 0 -144 158v16h20v-19q0 -137 122 -137q61 0 91 37t30 86q0 46 -26 74t-63 42.5t-74.5 30t-63.5 47t-26 81.5q0 52 32 84q36 40 100 40q68 0 98 -41t30 -99v-14h-20v17q0 119 -109 119q-52 0 -81.5 -30.5t-29.5 -79.5q0 -44 26 -71t63.5 -41.5t74.5 -29.5
t63 -46.5t26 -81.5q0 -60 -37 -101t-102 -41z" />
    <glyph glyph-name="t" unicode="t" horiz-adv-x="185" 
d="M78 79v419h-67v18h67v160h20v-160h88v-18h-88v-417q0 -36 12 -49.5t45 -13.5q26 0 39 3v-18q-15 -3 -40 -3q-38 0 -57 17.5t-19 61.5z" />
    <glyph glyph-name="u" unicode="u" horiz-adv-x="389" 
d="M338 516v-516h-20v93h-2q-7 -38 -44 -71.5t-88 -33.5q-133 0 -133 157v371h20v-369q0 -80 30.5 -110.5t82.5 -30.5q19 0 39.5 8t43 26.5t37 56.5t14.5 90v329h20z" />
    <glyph glyph-name="v" unicode="v" horiz-adv-x="315" 
d="M151 0l-148 516h20l140 -498h2l127 498h20l-135 -516h-26z" />
    <glyph glyph-name="w" unicode="w" horiz-adv-x="500" 
d="M116 0l-105 516h20l98 -498h2l105 498h29l102 -498h2l100 498h20l-108 -516h-27l-103 498h-2l-105 -498h-28z" />
    <glyph glyph-name="x" unicode="x" horiz-adv-x="315" 
d="M14 0l134 265l-130 251h21l120 -231l117 231h20l-127 -251l132 -265h-21l-122 245l-124 -245h-20z" />
    <glyph glyph-name="y" unicode="y" horiz-adv-x="315" 
d="M153 -4l-151 520h20l140 -491l-1 1h2l131 490h19l-146 -537q-24 -93 -48.5 -124t-76.5 -31q-13 0 -27 2v18q16 -2 30 -2q34 0 56 19q26 26 52 135z" />
    <glyph glyph-name="z" unicode="z" horiz-adv-x="296" 
d="M7 18l259 480h-249v18h269v-18l-259 -480h262v-18h-282v18z" />
    <glyph glyph-name="braceleft" unicode="{" horiz-adv-x="204" 
d="M9 256v18q70 0 70 159v167q0 56 17 85t65 29h54v-18h-54q-39 0 -50.5 -23t-11.5 -91v-156q0 -135 -70 -161q20 -9 32.5 -21t25 -48t12.5 -92v-156q0 -68 11.5 -91t50.5 -23h54v-18h-54q-48 0 -65 28t-17 86v167q0 159 -70 159z" />
    <glyph glyph-name="bar" unicode="|" horiz-adv-x="222" 
d="M101 -12v738h20v-738h-20z" />
    <glyph glyph-name="braceright" unicode="}" horiz-adv-x="204" 
d="M-11 -184v18h54q39 0 50.5 23t11.5 91v156q0 56 12.5 92t25 48t32.5 21q-70 26 -70 161v156q0 68 -11.5 91t-50.5 23h-54v18h54q48 0 65 -29t17 -85v-167q0 -159 70 -159v-18q-70 0 -70 -159v-167q0 -58 -17 -86t-65 -28h-54z" />
    <glyph glyph-name="asciitilde" unicode="~" horiz-adv-x="600" 
d="M93 206l-14 12q27 44 55 62t67 18q46 0 113 -34.5t100 -34.5q19 0 45.5 19t46.5 52l15 -13q-22 -36 -53 -56t-54 -20q-38 0 -105 34.5t-108 34.5q-33 0 -56.5 -16t-51.5 -58z" />
    <glyph glyph-name="uni00A0" unicode="&#xa0;" horiz-adv-x="240" 
 />
    <glyph glyph-name="exclamdown" unicode="&#xa1;" horiz-adv-x="204" 
d="M92 -164v532h20v-532h-20zM92 452v98h20v-98h-20z" />
    <glyph glyph-name="cent" unicode="&#xa2;" horiz-adv-x="480" 
d="M239 -104v92q-156 1 -156 270q0 260 156 270v83h20v-83q59 -4 97 -49t38 -106h-20q-2 55 -32 94t-83 43v-504q56 8 85.5 54t32.5 104h20q0 -64 -37 -116t-101 -60v-92h-20zM239 6v504q-136 -9 -136 -252q0 -133 37.5 -192.5t98.5 -59.5z" />
    <glyph glyph-name="sterling" unicode="&#xa3;" horiz-adv-x="480" 
d="M48 -12l-16 20q125 111 125 234q0 31 -18 92h-103v18h94q-6 12 -23.5 43.5t-26 48.5t-16.5 44t-8 49q0 68 51.5 119.5t144.5 51.5q82 0 136 -53.5t54 -148.5h-20q-4 92 -53 141q-45 43 -119 43q-82 0 -128 -46t-46 -107q0 -20 9 -46.5t18 -44.5t27 -51t23 -43h124v-18
h-118q18 -51 18 -91q0 -108 -108 -222l2 -1q40 24 74 24q28 0 83 -19q5 -2 16.5 -6.5t18 -6.5t17.5 -4t22 -2q69 0 147 66l11 -14q-77 -70 -151 -70q-20 0 -85 19q-64 19 -77 19q-7 0 -13.5 -0.5t-13 -2t-11 -2.5t-11 -4t-10 -4.5t-10 -5.5t-9.5 -5.5t-10.5 -6.5z" />
    <glyph glyph-name="currency" unicode="&#xa4;" horiz-adv-x="480" 
d="M50 348q0 -79 55.5 -134.5t134.5 -55.5t134.5 55.5t55.5 134.5t-55.5 134.5t-134.5 55.5t-134.5 -55.5t-55.5 -134.5zM47 169l38 38q-55 61 -55 141t55 141l-38 38l14 14l39 -39q59 56 140 56q84 0 140 -56l39 39l14 -14l-38 -38q55 -61 55 -141q0 -81 -56 -140l39 -39
l-14 -14l-38 38q-58 -55 -141 -55q-81 0 -140 56l-39 -39z" />
    <glyph glyph-name="yen" unicode="&#xa5;" horiz-adv-x="480" 
d="M230 0v184h-153v18h153v100h-153v18h142l-186 376h20l186 -373h2l186 373h20l-186 -376h142v-18h-153v-100h153v-18h-153v-184h-20z" />
    <glyph glyph-name="brokenbar" unicode="&#xa6;" horiz-adv-x="222" 
d="M101 459v267h20v-267h-20zM101 -12v267h20v-267h-20z" />
    <glyph glyph-name="section" unicode="&#xa7;" horiz-adv-x="481" 
d="M171 207l147 -99q99 46 99 122q0 40 -20 70t-68 67l-162 111q-55 -27 -79 -58t-24 -78q0 -61 107 -135zM245 -156q-65 0 -112 40.5t-47 121.5v10h20v-9q0 -77 43 -111t94 -34q53 0 94 30t41 83q0 51 -39 88q-25 23 -127.5 93t-121.5 91q-26 27 -36 47t-10 50
q0 94 109 147q-54 44 -54 96q0 65 44 102t104 37q67 0 108 -35t43 -112h-20q0 60 -34 94.5t-94 34.5q-55 0 -93 -32.5t-38 -86.5q0 -35 33 -69.5t79.5 -64.5t93 -61t79.5 -72t33 -85q0 -45 -24.5 -79t-80.5 -63q66 -57 66 -115q0 -61 -45 -98.5t-108 -37.5z" />
    <glyph glyph-name="dieresis" unicode="&#xa8;" 
d="M118 609v103h20v-103h-20zM-8 609v103h20v-103h-20z" />
    <glyph glyph-name="copyright" unicode="&#xa9;" horiz-adv-x="800" 
d="M51 357q0 -146 102 -248.5t247 -102.5t247 102.5t102 248.5t-102 248.5t-247 102.5t-247 -102.5t-102 -248.5zM769 357q0 -153 -108 -261t-261 -108t-261 108t-108 261t108 261t261 108t261 -108t108 -261zM598 438h-20q-11 67 -56 101.5t-114 34.5q-97 0 -150 -58
t-53 -159q0 -96 55 -157t148 -61q72 0 115.5 36.5t54.5 105.5h20q-10 -73 -60 -116.5t-130 -43.5q-101 0 -162 65.5t-61 170.5q0 109 59.5 172t163.5 63q77 0 128.5 -40.5t61.5 -113.5z" />
    <glyph glyph-name="ordfeminine" unicode="&#xaa;" horiz-adv-x="240" 
d="M190 504v66h-2q-6 -14 -83 -29q-70 -12 -70 -70q0 -34 20 -52.5t51 -18.5t57.5 25t26.5 79zM210 630v-198q0 -15 3 -20t12 -5q4 0 14 2v-18q-14 -2 -19 -2q-30 0 -30 55h-2q-4 -29 -26.5 -45.5t-56.5 -16.5q-90 0 -90 90q0 70 81 86q44 8 68 14q15 5 21 15t8 34
q-4 34 -16 47q-16 22 -53 22q-76 0 -76 -77h-20v14q0 31 25 56t71 25q35 0 60.5 -21t25.5 -57z" />
    <glyph glyph-name="guillemotleft" unicode="&#xab;" horiz-adv-x="315" 
d="M157 131l-98 131v20l98 131v-29l-84 -112l84 -112v-29zM256 131l-98 131v20l98 131v-29l-84 -112l84 -112v-29z" />
    <glyph glyph-name="logicalnot" unicode="&#xac;" horiz-adv-x="600" 
d="M533 108v233h-486v18h506v-251h-20z" />
    <glyph glyph-name="uni00AD" unicode="&#xad;" horiz-adv-x="296" 
d="M231 263h-166v18h166v-18z" />
    <glyph glyph-name="registered" unicode="&#xae;" horiz-adv-x="800" 
d="M51 357q0 -146 102 -248.5t247 -102.5t247 102.5t102 248.5t-102 248.5t-247 102.5t-247 -102.5t-102 -248.5zM769 357q0 -153 -108 -261t-261 -108t-261 108t-108 261t108 261t261 108t261 -108t108 -261zM274 560v-202h149q121 0 121 99q0 57 -32.5 80t-77.5 23h-160z
M254 136v442h175q135 0 135 -122q0 -99 -112 -116l132 -204h-26l-132 204h-152v-204h-20z" />
    <glyph glyph-name="macron" unicode="&#xaf;" 
d="M-31 669h192v-18h-192v18z" />
    <glyph glyph-name="degree" unicode="&#xb0;" horiz-adv-x="400" 
d="M323 565q0 51 -36 87t-87 36t-87 -36t-36 -87t36 -87t87 -36t87 36t36 87zM57 565q0 60 41.5 101.5t101.5 41.5t101.5 -41.5t41.5 -101.5t-41.5 -101.5t-101.5 -41.5t-101.5 41.5t-41.5 101.5z" />
    <glyph glyph-name="plusminus" unicode="&#xb1;" horiz-adv-x="600" 
d="M553 0h-506v18h506v-18zM290 86v201h-243v18h243v201h20v-201h243v-18h-243v-201h-20z" />
    <glyph glyph-name="twosuperior" unicode="&#xb2;" horiz-adv-x="312" 
d="M282 280h-252q0 41 11 67t34 54q12 15 76 57.5t69 47.5q42 42 42 91q0 42 -26 67.5t-75 25.5q-52 0 -79.5 -32.5t-27.5 -78.5h-20q0 57 35 93t91 36q55 0 88.5 -30.5t33.5 -83.5q0 -40 -24 -72.5t-58 -54.5l-68 -44t-58 -53.5t-24 -71.5h232v-18z" />
    <glyph glyph-name="threesuperior" unicode="&#xb3;" horiz-adv-x="312" 
d="M26 391h20q0 -45 30 -72.5t74 -27.5q55 0 85.5 30.5t30.5 80.5t-39 73.5t-94 20.5v18h15q47 0 75 22t28 65q0 42 -26.5 65.5t-69.5 23.5q-41 0 -71.5 -24t-30.5 -71h-20q0 53 32.5 83t89.5 30q56 0 86 -28t30 -78q0 -82 -82 -97v-2q97 -16 97 -104q0 -60 -36 -93
q-34 -33 -104 -33q-53 0 -86.5 32.5t-33.5 85.5z" />
    <glyph glyph-name="acute" unicode="&#xb4;" 
d="M28 591l83 139h20l-83 -139h-20z" />
    <glyph glyph-name="mu" unicode="&#xb5;" horiz-adv-x="389" 
d="M338 516v-516h-20v93h-2q-7 -38 -44 -71.5t-88 -33.5q-93 0 -111 70h-2v-234h-20v321v371h20v-369q0 -80 30.5 -110.5t82.5 -30.5q19 0 39.5 8t43 26.5t37 56.5t14.5 90v329h20z" />
    <glyph glyph-name="paragraph" unicode="&#xb6;" horiz-adv-x="600" 
d="M262 342v354q-80 0 -129.5 -46.5t-49.5 -131.5q0 -72 53.5 -124t125.5 -52zM262 -144v468q-81 0 -140 57.5t-59 136.5q0 96 57.5 146t161.5 50h195v-858h-20v840h-175v-840h-20z" />
    <glyph glyph-name="periodcentered" unicode="&#xb7;" horiz-adv-x="240" 
d="M83 344q0 15 11 26t26 11t26 -11t11 -26t-11 -26t-26 -11t-26 11t-11 26z" />
    <glyph glyph-name="cedilla" unicode="&#xb8;" 
d="M10 -79l56 79h20l-40 -57l2 -2q16 6 34 6q28 0 48.5 -15.5t20.5 -43.5q0 -27 -24.5 -51t-68.5 -24q-55 0 -79 18l8 17q32 -17 69 -17q33 0 54 15.5t21 39.5q0 43 -53 43q-40 0 -60 -18z" />
    <glyph glyph-name="onesuperior" unicode="&#xb9;" horiz-adv-x="312" 
d="M168 280v410h-2q-13 -25 -49.5 -48t-63.5 -25v18q65 12 109 73h26v-428h-20z" />
    <glyph glyph-name="ordmasculine" unicode="&#xba;" horiz-adv-x="313" 
d="M64 545q0 -145 93 -145q92 0 92 145t-92 145q-93 0 -93 -145zM157 382q-113 0 -113 163t113 163q53 0 82.5 -36.5t29.5 -126.5t-29.5 -126.5t-82.5 -36.5z" />
    <glyph glyph-name="guillemotright" unicode="&#xbb;" horiz-adv-x="315" 
d="M158 155l84 117l-84 117v27h2l96 -134v-20l-96 -134h-2v27zM59 155l84 117l-84 117v27h2l96 -134v-20l-96 -134h-2v27z" />
    <glyph glyph-name="onequarter" unicode="&#xbc;" horiz-adv-x="721" 
d="M150 280v410h-2q-13 -25 -49.5 -48t-63.5 -25v18q65 12 109 73h26v-428h-20zM81 -30l479 756h20l-479 -756h-20zM581 0v112h-205v18l196 298h29v-298h50v-18h-50v-112h-20zM581 130v280h-2l-183 -280h185z" />
    <glyph glyph-name="onehalf" unicode="&#xbd;" horiz-adv-x="721" 
d="M681 0h-252q0 41 11 67t34 54q12 15 76 57.5t69 47.5q42 42 42 91q0 42 -26 67.5t-75 25.5q-52 0 -79.5 -32.5t-27.5 -78.5h-20q0 57 35 93t91 36q55 0 88.5 -30.5t33.5 -83.5q0 -40 -24 -72.5t-58 -54.5l-68 -44t-58 -53.5t-24 -71.5h232v-18zM150 280v410h-2
q-13 -25 -49.5 -48t-63.5 -25v18q65 12 109 73h26v-428h-20zM71 -30l479 756h20l-479 -756h-20z" />
    <glyph glyph-name="threequarters" unicode="&#xbe;" horiz-adv-x="721" 
d="M33 391h20q0 -45 30 -72.5t74 -27.5q55 0 85.5 30.5t30.5 80.5t-39 73.5t-94 20.5v18h15q47 0 75 22t28 65q0 42 -26.5 65.5t-69.5 23.5q-41 0 -71.5 -24t-30.5 -71h-20q0 53 32.5 83t89.5 30q56 0 86 -28t30 -78q0 -82 -82 -97v-2q97 -16 97 -104q0 -60 -36 -93
q-34 -33 -104 -33q-53 0 -86.5 32.5t-33.5 85.5zM146 -30l479 756h20l-479 -756h-20zM616 0v112h-205v18l196 298h29v-298h50v-18h-50v-112h-20zM616 130v280h-2l-183 -280h185z" />
    <glyph glyph-name="questiondown" unicode="&#xbf;" horiz-adv-x="407" 
d="M225 550v-98h-20v98h20zM225 368v-67q0 -39 -18 -72.5t-43.5 -58.5t-51 -50.5t-43.5 -62t-18 -79.5q0 -65 43 -100.5t105 -35.5t109.5 44.5t47.5 134.5v23h20v-22q0 -94 -51.5 -146t-125.5 -52q-78 0 -123 43.5t-45 111.5q0 51 20.5 90.5t77.5 94.5q45 43 60.5 72.5
t15.5 75.5v56h20z" />
    <glyph glyph-name="Agrave" unicode="&#xc0;" horiz-adv-x="481" 
d="M381 250l-139 446h-2l-139 -446h280zM2 0l227 714h24l226 -714h-20l-73 232h-291l-73 -232h-20zM233 765l-83 139h20l83 -139h-20z" />
    <glyph glyph-name="Aacute" unicode="&#xc1;" horiz-adv-x="481" 
d="M381 250l-139 446h-2l-139 -446h280zM2 0l227 714h24l226 -714h-20l-73 232h-291l-73 -232h-20zM229 765l83 139h20l-83 -139h-20z" />
    <glyph glyph-name="Acircumflex" unicode="&#xc2;" horiz-adv-x="481" 
d="M381 250l-139 446h-2l-139 -446h280zM2 0l227 714h24l226 -714h-20l-73 232h-291l-73 -232h-20zM139 765l88 139h28l88 -139h-20l-82 125l-82 -125h-20z" />
    <glyph glyph-name="Atilde" unicode="&#xc3;" horiz-adv-x="481" 
d="M381 250l-139 446h-2l-139 -446h280zM2 0l227 714h24l226 -714h-20l-73 232h-291l-73 -232h-20zM150 796h-20q3 28 17.5 51.5t41.5 23.5q24 0 54.5 -28.5t47.5 -28.5q34 0 41 59h20q-13 -77 -61 -77q-22 0 -57 28.5t-46 28.5q-26 0 -38 -57z" />
    <glyph glyph-name="Adieresis" unicode="&#xc4;" horiz-adv-x="481" 
d="M381 250l-139 446h-2l-139 -446h280zM2 0l227 714h24l226 -714h-20l-73 232h-291l-73 -232h-20zM294 783v103h20v-103h-20zM168 783v103h20v-103h-20z" />
    <glyph glyph-name="Aring" unicode="&#xc5;" horiz-adv-x="481" 
d="M381 250l-139 446h-2l-139 -446h280zM2 0l227 714h24l226 -714h-20l-73 232h-291l-73 -232h-20zM156 826q0 35 25 60t60 25t60 -25t25 -60q0 -36 -25 -60.5t-60 -24.5q-36 0 -60.5 24.5t-24.5 60.5zM306 826q0 29 -19 48t-46 19t-46 -19t-19 -48t19 -48t46 -19t46 19
t19 48z" />
    <glyph glyph-name="AE" unicode="&#xc6;" horiz-adv-x="685" 
d="M125 250h207v446h-7zM-7 0l321 714h348v-18h-310v-314h289v-18h-289v-346h325v-18h-345v232h-215l-104 -232h-20z" />
    <glyph glyph-name="Ccedilla" unicode="&#xc7;" horiz-adv-x="500" 
d="M456 237h20q-6 -49 -19 -90.5t-36.5 -78t-62.5 -58t-91 -22.5l-31 -45l2 -2q16 6 34 6q28 0 48.5 -15.5t20.5 -43.5q0 -27 -24.5 -51t-68.5 -24q-55 0 -79 18l8 17q32 -17 69 -17q33 0 54 15.5t21 39.5q0 43 -53 43q-40 0 -60 -18l-8 10l48 68q-60 5 -96 32
q-114 79 -114 336q0 57 5.5 106.5t21 99t40.5 84.5t66 57t95 22t94 -21t61 -55t31.5 -68.5t12.5 -71.5h-20q-4 87 -49 142.5t-129 55.5q-209 0 -209 -351t209 -351q42 0 75.5 17.5t53 42t33 58.5t19 59.5t8.5 53.5z" />
    <glyph glyph-name="Egrave" unicode="&#xc8;" horiz-adv-x="407" 
d="M58 0v714h325v-18h-305v-314h283v-18h-283v-346h313v-18h-333zM231 765l-83 139h20l83 -139h-20z" />
    <glyph glyph-name="Eacute" unicode="&#xc9;" horiz-adv-x="407" 
d="M58 0v714h325v-18h-305v-314h283v-18h-283v-346h313v-18h-333zM204 765l83 139h20l-83 -139h-20z" />
    <glyph glyph-name="Ecircumflex" unicode="&#xca;" horiz-adv-x="407" 
d="M58 0v714h325v-18h-305v-314h283v-18h-283v-346h313v-18h-333zM121 765l88 139h28l88 -139h-20l-82 125l-82 -125h-20z" />
    <glyph glyph-name="Edieresis" unicode="&#xcb;" horiz-adv-x="407" 
d="M58 0v714h325v-18h-305v-314h283v-18h-283v-346h313v-18h-333zM277 783v103h20v-103h-20zM151 783v103h20v-103h-20z" />
    <glyph glyph-name="Igrave" unicode="&#xcc;" horiz-adv-x="148" 
d="M64 0v714h20v-714h-20zM64 765l-83 139h20l83 -139h-20z" />
    <glyph glyph-name="Iacute" unicode="&#xcd;" horiz-adv-x="148" 
d="M64 0v714h20v-714h-20zM63 765l83 139h20l-83 -139h-20z" />
    <glyph glyph-name="Icircumflex" unicode="&#xce;" horiz-adv-x="148" 
d="M64 0v714h20v-714h-20zM-28 765l88 139h28l88 -139h-20l-82 125l-82 -125h-20z" />
    <glyph glyph-name="Idieresis" unicode="&#xcf;" horiz-adv-x="148" 
d="M64 0v714h20v-714h-20zM127 783v103h20v-103h-20zM1 783v103h20v-103h-20z" />
    <glyph glyph-name="Eth" unicode="&#xd0;" horiz-adv-x="500" 
d="M78 364v-346h133q231 0 231 351q0 168 -49.5 247.5t-170.5 79.5h-144v-314h178v-18h-178zM58 0v364h-58v18h58v332h172q68 0 115 -26.5t72 -76t35 -107.5t10 -135q0 -107 -19.5 -181t-56.5 -114t-82 -57t-104 -17h-142z" />
    <glyph glyph-name="Ntilde" unicode="&#xd1;" horiz-adv-x="500" 
d="M53 0v714h33l339 -682h2v682h20v-714h-29l-343 696h-2v-696h-20zM163 796h-20q3 28 17.5 51.5t41.5 23.5q24 0 54.5 -28.5t47.5 -28.5q34 0 41 59h20q-13 -77 -61 -77q-22 0 -57 28.5t-46 28.5q-26 0 -38 -57z" />
    <glyph glyph-name="Ograve" unicode="&#xd2;" horiz-adv-x="537" 
d="M58 357q0 -351 209 -351q212 0 212 351t-212 351q-209 0 -209 -351zM499 357q0 -30 -0.5 -50.5t-5 -62.5t-12.5 -72t-24.5 -67.5t-39.5 -60.5t-60 -39.5t-84 -16.5q-67 0 -115 32t-73 87.5t-36 116.5t-11 133q0 56 6 106t22 99.5t41 84.5t65.5 57t93.5 22q47 0 84 -16
t61 -40t41.5 -60.5t26 -68t13.5 -71.5t6 -63t1 -50zM270 765l-83 139h20l83 -139h-20z" />
    <glyph glyph-name="Oacute" unicode="&#xd3;" horiz-adv-x="537" 
d="M58 357q0 -351 209 -351q212 0 212 351t-212 351q-209 0 -209 -351zM499 357q0 -30 -0.5 -50.5t-5 -62.5t-12.5 -72t-24.5 -67.5t-39.5 -60.5t-60 -39.5t-84 -16.5q-67 0 -115 32t-73 87.5t-36 116.5t-11 133q0 56 6 106t22 99.5t41 84.5t65.5 57t93.5 22q47 0 84 -16
t61 -40t41.5 -60.5t26 -68t13.5 -71.5t6 -63t1 -50zM256 765l83 139h20l-83 -139h-20z" />
    <glyph glyph-name="Ocircumflex" unicode="&#xd4;" horiz-adv-x="537" 
d="M58 357q0 -351 209 -351q212 0 212 351t-212 351q-209 0 -209 -351zM499 357q0 -30 -0.5 -50.5t-5 -62.5t-12.5 -72t-24.5 -67.5t-39.5 -60.5t-60 -39.5t-84 -16.5q-67 0 -115 32t-73 87.5t-36 116.5t-11 133q0 56 6 106t22 99.5t41 84.5t65.5 57t93.5 22q47 0 84 -16
t61 -40t41.5 -60.5t26 -68t13.5 -71.5t6 -63t1 -50zM165 765l88 139h28l88 -139h-20l-82 125l-82 -125h-20z" />
    <glyph glyph-name="Otilde" unicode="&#xd5;" horiz-adv-x="537" 
d="M58 357q0 -351 209 -351q212 0 212 351t-212 351q-209 0 -209 -351zM499 357q0 -30 -0.5 -50.5t-5 -62.5t-12.5 -72t-24.5 -67.5t-39.5 -60.5t-60 -39.5t-84 -16.5q-67 0 -115 32t-73 87.5t-36 116.5t-11 133q0 56 6 106t22 99.5t41 84.5t65.5 57t93.5 22q47 0 84 -16
t61 -40t41.5 -60.5t26 -68t13.5 -71.5t6 -63t1 -50zM176 796h-20q3 28 17.5 51.5t41.5 23.5q24 0 54.5 -28.5t47.5 -28.5q34 0 41 59h20q-13 -77 -61 -77q-22 0 -57 28.5t-46 28.5q-26 0 -38 -57z" />
    <glyph glyph-name="Odieresis" unicode="&#xd6;" horiz-adv-x="537" 
d="M58 357q0 -351 209 -351q212 0 212 351t-212 351q-209 0 -209 -351zM499 357q0 -30 -0.5 -50.5t-5 -62.5t-12.5 -72t-24.5 -67.5t-39.5 -60.5t-60 -39.5t-84 -16.5q-67 0 -115 32t-73 87.5t-36 116.5t-11 133q0 56 6 106t22 99.5t41 84.5t65.5 57t93.5 22q47 0 84 -16
t61 -40t41.5 -60.5t26 -68t13.5 -71.5t6 -63t1 -50zM318 783v103h20v-103h-20zM192 783v103h20v-103h-20z" />
    <glyph glyph-name="multiply" unicode="&#xd7;" horiz-adv-x="600" 
d="M79 43l210 209l-210 210l11 12l210 -210l210 210l11 -12l-210 -210l210 -209l-12 -11l-209 209l-209 -209z" />
    <glyph glyph-name="Oslash" unicode="&#xd8;" horiz-adv-x="537" 
d="M94 -27l30 72q-86 88 -86 312q0 56 6 106t22 99.5t41 84.5t65.5 57t93.5 22q79 0 127 -42l27 65l18 -7l-30 -71q91 -88 91 -314q0 -27 -1 -50t-6 -63t-13.5 -71.5t-26 -68t-41.5 -60.5t-61 -40t-84 -16q-75 0 -126 43l-28 -66zM401 653l-253 -603q46 -44 119 -44
q212 0 212 351q0 213 -78 296zM132 65l254 603q-46 40 -119 40q-209 0 -209 -351q0 -207 74 -292z" />
    <glyph glyph-name="Ugrave" unicode="&#xd9;" horiz-adv-x="481" 
d="M432 714v-521q0 -99 -49.5 -152t-142.5 -53q-91 0 -141 53t-50 152v521h20v-518q0 -190 171 -190q172 0 172 190v518h20zM245 765l-83 139h20l83 -139h-20z" />
    <glyph glyph-name="Uacute" unicode="&#xda;" horiz-adv-x="481" 
d="M432 714v-521q0 -99 -49.5 -152t-142.5 -53q-91 0 -141 53t-50 152v521h20v-518q0 -190 171 -190q172 0 172 190v518h20zM229 765l83 139h20l-83 -139h-20z" />
    <glyph glyph-name="Ucircumflex" unicode="&#xdb;" horiz-adv-x="481" 
d="M432 714v-521q0 -99 -49.5 -152t-142.5 -53q-91 0 -141 53t-50 152v521h20v-518q0 -190 171 -190q172 0 172 190v518h20zM139 765l88 139h28l88 -139h-20l-82 125l-82 -125h-20z" />
    <glyph glyph-name="Udieresis" unicode="&#xdc;" horiz-adv-x="481" 
d="M432 714v-521q0 -99 -49.5 -152t-142.5 -53q-91 0 -141 53t-50 152v521h20v-518q0 -190 171 -190q172 0 172 190v518h20zM292 783v103h20v-103h-20zM166 783v103h20v-103h-20z" />
    <glyph glyph-name="Yacute" unicode="&#xdd;" horiz-adv-x="426" 
d="M203 0v301l-200 413h21l189 -392l190 392h20l-200 -413v-301h-20zM201 765l83 139h20l-83 -139h-20z" />
    <glyph glyph-name="Thorn" unicode="&#xde;" horiz-adv-x="463" 
d="M78 552v-352h154q31 0 59.5 9t55 28.5t42.5 56.5t16 87q0 76 -40.5 123.5t-116.5 47.5h-170zM58 0v714h20v-144h176q75 0 123 -51t48 -139q0 -100 -57.5 -149t-137.5 -49h-152v-182h-20z" />
    <glyph glyph-name="germandbls" unicode="&#xdf;" horiz-adv-x="407" 
d="M51 0v551q0 71 37.5 117t109.5 46q68 0 107.5 -40t39.5 -116q0 -53 -25 -91.5t-72 -54.5v-2q134 -27 134 -191q0 -98 -49.5 -161.5t-139.5 -63.5q-28 0 -39 3v18q18 -3 43 -3q78 0 121.5 58t43.5 149q0 96 -47.5 138.5t-138.5 42.5h-15v18h12q79 0 115.5 39t36.5 103
q0 65 -33.5 100.5t-91.5 35.5q-68 0 -98.5 -42t-30.5 -105v-549h-20z" />
    <glyph glyph-name="agrave" unicode="&#xe0;" horiz-adv-x="370" 
d="M297 189v117q-21 -25 -135 -47q-61 -12 -87 -42t-26 -84q0 -63 31.5 -95t82.5 -32q49 0 91.5 45.5t42.5 137.5zM29 135q0 114 123 138q79 16 105 26q22 7 31 25.5t9 61.5q0 58 -20 85q-29 39 -87 39q-121 0 -121 -137h-20v17q0 57 35.5 97.5t105.5 40.5q55 0 91 -31.5
t36 -92.5v-339q0 -49 30 -47q6 0 20 2v-18q-10 -2 -14 -2h-10q-23 0 -34.5 13.5t-11.5 53.5v20h-2q-18 -46 -52.5 -72.5t-82.5 -26.5q-62 0 -96.5 39t-34.5 108zM183 591l-83 139h20l83 -139h-20z" />
    <glyph glyph-name="aacute" unicode="&#xe1;" horiz-adv-x="370" 
d="M297 189v117q-21 -25 -135 -47q-61 -12 -87 -42t-26 -84q0 -63 31.5 -95t82.5 -32q49 0 91.5 45.5t42.5 137.5zM29 135q0 114 123 138q79 16 105 26q22 7 31 25.5t9 61.5q0 58 -20 85q-29 39 -87 39q-121 0 -121 -137h-20v17q0 57 35.5 97.5t105.5 40.5q55 0 91 -31.5
t36 -92.5v-339q0 -49 30 -47q6 0 20 2v-18q-10 -2 -14 -2h-10q-23 0 -34.5 13.5t-11.5 53.5v20h-2q-18 -46 -52.5 -72.5t-82.5 -26.5q-62 0 -96.5 39t-34.5 108zM179 591l83 139h20l-83 -139h-20z" />
    <glyph glyph-name="acircumflex" unicode="&#xe2;" horiz-adv-x="370" 
d="M297 189v117q-21 -25 -135 -47q-61 -12 -87 -42t-26 -84q0 -63 31.5 -95t82.5 -32q49 0 91.5 45.5t42.5 137.5zM29 135q0 114 123 138q79 16 105 26q22 7 31 25.5t9 61.5q0 58 -20 85q-29 39 -87 39q-121 0 -121 -137h-20v17q0 57 35.5 97.5t105.5 40.5q55 0 91 -31.5
t36 -92.5v-339q0 -49 30 -47q6 0 20 2v-18q-10 -2 -14 -2h-10q-23 0 -34.5 13.5t-11.5 53.5v20h-2q-18 -46 -52.5 -72.5t-82.5 -26.5q-62 0 -96.5 39t-34.5 108zM88 591l88 139h28l88 -139h-20l-82 125l-82 -125h-20z" />
    <glyph glyph-name="atilde" unicode="&#xe3;" horiz-adv-x="370" 
d="M297 189v117q-21 -25 -135 -47q-61 -12 -87 -42t-26 -84q0 -63 31.5 -95t82.5 -32q49 0 91.5 45.5t42.5 137.5zM29 135q0 114 123 138q79 16 105 26q22 7 31 25.5t9 61.5q0 58 -20 85q-29 39 -87 39q-121 0 -121 -137h-20v17q0 57 35.5 97.5t105.5 40.5q55 0 91 -31.5
t36 -92.5v-339q0 -49 30 -47q6 0 20 2v-18q-10 -2 -14 -2h-10q-23 0 -34.5 13.5t-11.5 53.5v20h-2q-18 -46 -52.5 -72.5t-82.5 -26.5q-62 0 -96.5 39t-34.5 108zM94 622h-20q3 28 17.5 51.5t41.5 23.5q24 0 54.5 -28.5t47.5 -28.5q34 0 41 59h20q-13 -77 -61 -77
q-22 0 -57 28.5t-46 28.5q-26 0 -38 -57z" />
    <glyph glyph-name="adieresis" unicode="&#xe4;" horiz-adv-x="370" 
d="M297 189v117q-21 -25 -135 -47q-61 -12 -87 -42t-26 -84q0 -63 31.5 -95t82.5 -32q49 0 91.5 45.5t42.5 137.5zM29 135q0 114 123 138q79 16 105 26q22 7 31 25.5t9 61.5q0 58 -20 85q-29 39 -87 39q-121 0 -121 -137h-20v17q0 57 35.5 97.5t105.5 40.5q55 0 91 -31.5
t36 -92.5v-339q0 -49 30 -47q6 0 20 2v-18q-10 -2 -14 -2h-10q-23 0 -34.5 13.5t-11.5 53.5v20h-2q-18 -46 -52.5 -72.5t-82.5 -26.5q-62 0 -96.5 39t-34.5 108zM241 609v103h20v-103h-20zM115 609v103h20v-103h-20z" />
    <glyph glyph-name="aring" unicode="&#xe5;" horiz-adv-x="370" 
d="M297 189v117q-21 -25 -135 -47q-61 -12 -87 -42t-26 -84q0 -63 31.5 -95t82.5 -32q49 0 91.5 45.5t42.5 137.5zM29 135q0 114 123 138q79 16 105 26q22 7 31 25.5t9 61.5q0 58 -20 85q-29 39 -87 39q-121 0 -121 -137h-20v17q0 57 35.5 97.5t105.5 40.5q55 0 91 -31.5
t36 -92.5v-339q0 -49 30 -47q6 0 20 2v-18q-10 -2 -14 -2h-10q-23 0 -34.5 13.5t-11.5 53.5v20h-2q-18 -46 -52.5 -72.5t-82.5 -26.5q-62 0 -96.5 39t-34.5 108zM100 676q0 35 25 60t60 25t60 -25t25 -60q0 -36 -25 -60.5t-60 -24.5q-36 0 -60.5 24.5t-24.5 60.5zM250 676
q0 29 -19 48t-46 19t-46 -19t-19 -48t19 -48t46 -19t46 19t19 48z" />
    <glyph glyph-name="ae" unicode="&#xe6;" horiz-adv-x="593" 
d="M280 189v108h-2q-10 -16 -100 -36q-44 -9 -65.5 -17.5t-38.5 -27.5q-25 -25 -25 -82q0 -55 26 -91.5t78 -36.5q38 0 64.5 17.5t39 46.5t18 58t5.5 61zM29 134q0 63 29 94q32 34 159 61q45 10 56 23t11 58q0 51 -6 71t-23 41q-25 28 -75 28q-60 0 -88 -37t-28 -94v-5h-20
v6q0 71 36.5 109.5t100.5 38.5q47 0 80 -26t35 -68h2q9 31 40 62.5t80 31.5q73 0 109.5 -64t36.5 -176v-19h-264v-69q0 -32 4.5 -61t15.5 -61.5t35.5 -52t59.5 -19.5q63 0 91.5 51.5t31.5 123.5h20q-3 -82 -36.5 -137.5t-107.5 -55.5q-43 0 -72 24.5t-39 50t-13 53.5h-2
q-9 -57 -42.5 -92.5t-91.5 -35.5q-61 0 -93 42t-32 104zM300 287h244q0 223 -126 223q-65 0 -99 -75q-19 -45 -19 -148z" />
    <glyph glyph-name="ccedilla" unicode="&#xe7;" horiz-adv-x="370" 
d="M348 373h-20q-2 56 -35.5 96.5t-90.5 40.5q-145 0 -145 -252t145 -252q45 0 76 29t42 63t13 70h20q-4 -78 -45 -129t-106 -51l-31 -45l2 -2q16 6 34 6q28 0 48.5 -15.5t20.5 -43.5q0 -27 -24.5 -51t-68.5 -24q-55 0 -79 18l8 17q32 -17 69 -17q33 0 54 15.5t21 39.5
q0 43 -53 43q-40 0 -60 -18l-8 10l48 68q-74 8 -108 70q-38 73 -38 214q0 255 165 255q64 0 105 -46.5t41 -108.5z" />
    <glyph glyph-name="egrave" unicode="&#xe8;" horiz-adv-x="389" 
d="M57 287h280v35q0 46 -9.5 85t-41.5 71t-84 32q-139 0 -145 -223zM357 269h-300q0 -126 33 -194.5t112 -68.5q45 0 76 29t42 63t13 70h20q-4 -78 -45 -129t-106 -51q-86 0 -125.5 70.5t-39.5 214.5q0 255 165 255q57 0 93 -32.5t49 -80t13 -110.5v-36zM204 591l-83 139h20
l83 -139h-20z" />
    <glyph glyph-name="eacute" unicode="&#xe9;" horiz-adv-x="389" 
d="M57 287h280v35q0 46 -9.5 85t-41.5 71t-84 32q-139 0 -145 -223zM357 269h-300q0 -126 33 -194.5t112 -68.5q45 0 76 29t42 63t13 70h20q-4 -78 -45 -129t-106 -51q-86 0 -125.5 70.5t-39.5 214.5q0 255 165 255q57 0 93 -32.5t49 -80t13 -110.5v-36zM191 591l83 139h20
l-83 -139h-20z" />
    <glyph glyph-name="ecircumflex" unicode="&#xea;" horiz-adv-x="389" 
d="M57 287h280v35q0 46 -9.5 85t-41.5 71t-84 32q-139 0 -145 -223zM357 269h-300q0 -126 33 -194.5t112 -68.5q45 0 76 29t42 63t13 70h20q-4 -78 -45 -129t-106 -51q-86 0 -125.5 70.5t-39.5 214.5q0 255 165 255q57 0 93 -32.5t49 -80t13 -110.5v-36zM100 591l88 139h28
l88 -139h-20l-82 125l-82 -125h-20z" />
    <glyph glyph-name="edieresis" unicode="&#xeb;" horiz-adv-x="389" 
d="M57 287h280v35q0 46 -9.5 85t-41.5 71t-84 32q-139 0 -145 -223zM357 269h-300q0 -126 33 -194.5t112 -68.5q45 0 76 29t42 63t13 70h20q-4 -78 -45 -129t-106 -51q-86 0 -125.5 70.5t-39.5 214.5q0 255 165 255q57 0 93 -32.5t49 -80t13 -110.5v-36zM256 609v103h20
v-103h-20zM130 609v103h20v-103h-20z" />
    <glyph glyph-name="igrave" unicode="&#xec;" 
d="M55 0v516h20v-516h-20zM56 591l-83 139h20l83 -139h-20z" />
    <glyph glyph-name="iacute" unicode="&#xed;" 
d="M55 0v516h20v-516h-20zM53 591l83 139h20l-83 -139h-20z" />
    <glyph glyph-name="icircumflex" unicode="&#xee;" 
d="M55 0v516h20v-516h-20zM-36 591l88 139h28l88 -139h-20l-82 125l-82 -125h-20z" />
    <glyph glyph-name="idieresis" unicode="&#xef;" 
d="M55 0v516h20v-516h-20zM118 609v103h20v-103h-20zM-8 609v103h20v-103h-20z" />
    <glyph glyph-name="eth" unicode="&#xf0;" horiz-adv-x="407" 
d="M132 607l-13 15l72 48q-29 28 -68 52l19 13q39 -27 67 -53l70 47l14 -15l-69 -46q80 -80 113 -180.5t33 -229.5q0 -270 -166 -270q-167 0 -167 270t167 270q65 0 109 -44l2 2q-33 98 -109 170zM57 258q0 -252 147 -252q77 0 111.5 62t34.5 190q0 129 -33.5 190.5
t-112.5 61.5q-147 0 -147 -252z" />
    <glyph glyph-name="ntilde" unicode="&#xf1;" horiz-adv-x="389" 
d="M51 0v516h20v-93h2q7 38 44 71.5t88 33.5q133 0 133 -157v-371h-20v369q0 79 -30.5 110t-82.5 31q-20 0 -40.5 -8t-43 -26.5t-36.5 -56.5t-14 -90v-329h-20zM100 622h-20q3 28 17.5 51.5t41.5 23.5q24 0 54.5 -28.5t47.5 -28.5q34 0 41 59h20q-13 -77 -61 -77
q-22 0 -57 28.5t-46 28.5q-26 0 -38 -57z" />
    <glyph glyph-name="ograve" unicode="&#xf2;" horiz-adv-x="407" 
d="M57 258q0 -252 147 -252q77 0 111.5 62t34.5 190t-34.5 190t-111.5 62q-147 0 -147 -252zM204 -12q-167 0 -167 270t167 270q166 0 166 -270t-166 -270zM205 591l-83 139h20l83 -139h-20z" />
    <glyph glyph-name="oacute" unicode="&#xf3;" horiz-adv-x="407" 
d="M57 258q0 -252 147 -252q77 0 111.5 62t34.5 190t-34.5 190t-111.5 62q-147 0 -147 -252zM204 -12q-167 0 -167 270t167 270q166 0 166 -270t-166 -270zM191 591l83 139h20l-83 -139h-20z" />
    <glyph glyph-name="ocircumflex" unicode="&#xf4;" horiz-adv-x="407" 
d="M57 258q0 -252 147 -252q77 0 111.5 62t34.5 190t-34.5 190t-111.5 62q-147 0 -147 -252zM204 -12q-167 0 -167 270t167 270q166 0 166 -270t-166 -270zM101 591l88 139h28l88 -139h-20l-82 125l-82 -125h-20z" />
    <glyph glyph-name="otilde" unicode="&#xf5;" horiz-adv-x="407" 
d="M57 258q0 -252 147 -252q77 0 111.5 62t34.5 190t-34.5 190t-111.5 62q-147 0 -147 -252zM204 -12q-167 0 -167 270t167 270q166 0 166 -270t-166 -270zM111 622h-20q3 28 17.5 51.5t41.5 23.5q24 0 54.5 -28.5t47.5 -28.5q34 0 41 59h20q-13 -77 -61 -77q-22 0 -57 28.5
t-46 28.5q-26 0 -38 -57z" />
    <glyph glyph-name="odieresis" unicode="&#xf6;" horiz-adv-x="407" 
d="M57 258q0 -252 147 -252q77 0 111.5 62t34.5 190t-34.5 190t-111.5 62q-147 0 -147 -252zM204 -12q-167 0 -167 270t167 270q166 0 166 -270t-166 -270zM255 609v103h20v-103h-20zM129 609v103h20v-103h-20z" />
    <glyph glyph-name="divide" unicode="&#xf7;" horiz-adv-x="600" 
d="M263 37q0 15 11 26t26 11t26 -11t11 -26t-11 -26t-26 -11t-26 11t-11 26zM263 469q0 15 11 26t26 11t26 -11t11 -26t-11 -26t-26 -11t-26 11t-11 26zM553 244h-506v18h506v-18z" />
    <glyph glyph-name="oslash" unicode="&#xf8;" horiz-adv-x="407" 
d="M73 -43l29 71q-65 62 -65 230q0 270 167 270q53 0 89 -27l26 65l17 -7l-29 -71q63 -60 63 -230q0 -270 -166 -270q-53 0 -88 29l-27 -67zM300 470l-177 -435q32 -29 81 -29q77 0 111.5 62t34.5 190q0 154 -50 212zM110 48l176 435q-34 27 -82 27q-147 0 -147 -252
q0 -150 53 -210z" />
    <glyph glyph-name="ugrave" unicode="&#xf9;" horiz-adv-x="389" 
d="M338 516v-516h-20v93h-2q-7 -38 -44 -71.5t-88 -33.5q-133 0 -133 157v371h20v-369q0 -80 30.5 -110.5t82.5 -30.5q19 0 39.5 8t43 26.5t37 56.5t14.5 90v329h20zM198 591l-83 139h20l83 -139h-20z" />
    <glyph glyph-name="uacute" unicode="&#xfa;" horiz-adv-x="389" 
d="M338 516v-516h-20v93h-2q-7 -38 -44 -71.5t-88 -33.5q-133 0 -133 157v371h20v-369q0 -80 30.5 -110.5t82.5 -30.5q19 0 39.5 8t43 26.5t37 56.5t14.5 90v329h20zM181 591l83 139h20l-83 -139h-20z" />
    <glyph glyph-name="ucircumflex" unicode="&#xfb;" horiz-adv-x="389" 
d="M338 516v-516h-20v93h-2q-7 -38 -44 -71.5t-88 -33.5q-133 0 -133 157v371h20v-369q0 -80 30.5 -110.5t82.5 -30.5q19 0 39.5 8t43 26.5t37 56.5t14.5 90v329h20zM92 591l88 139h28l88 -139h-20l-82 125l-82 -125h-20z" />
    <glyph glyph-name="udieresis" unicode="&#xfc;" horiz-adv-x="389" 
d="M338 516v-516h-20v93h-2q-7 -38 -44 -71.5t-88 -33.5q-133 0 -133 157v371h20v-369q0 -80 30.5 -110.5t82.5 -30.5q19 0 39.5 8t43 26.5t37 56.5t14.5 90v329h20zM247 609v103h20v-103h-20zM121 609v103h20v-103h-20z" />
    <glyph glyph-name="yacute" unicode="&#xfd;" horiz-adv-x="315" 
d="M153 -4l-151 520h20l140 -491l-1 1h2l131 490h19l-146 -537q-24 -93 -48.5 -124t-76.5 -31q-13 0 -27 2v18q16 -2 30 -2q34 0 56 19q26 26 52 135zM151 591l83 139h20l-83 -139h-20z" />
    <glyph glyph-name="thorn" unicode="&#xfe;" horiz-adv-x="407" 
d="M71 258q0 -126 37 -189t102 -63q140 0 140 243q0 261 -144 261q-62 0 -98.5 -64t-36.5 -188zM51 -176v890h20v-309h3q33 123 134 123q77 0 119.5 -68t42.5 -207q0 -265 -160 -265q-53 0 -87 33t-49 83h-3v-280h-20z" />
    <glyph glyph-name="ydieresis" unicode="&#xff;" horiz-adv-x="315" 
d="M153 -4l-151 520h20l140 -491l-1 1h2l131 490h19l-146 -537q-24 -93 -48.5 -124t-76.5 -31q-13 0 -27 2v18q16 -2 30 -2q34 0 56 19q26 26 52 135zM215 609v103h20v-103h-20zM89 609v103h20v-103h-20z" />
    <glyph glyph-name="Amacron" unicode="&#x100;" horiz-adv-x="481" 
d="M381 250l-139 446h-2l-139 -446h280zM2 0l227 714h24l226 -714h-20l-73 232h-291l-73 -232h-20zM144 843h192v-18h-192v18z" />
    <glyph glyph-name="amacron" unicode="&#x101;" horiz-adv-x="370" 
d="M297 189v117q-21 -25 -135 -47q-61 -12 -87 -42t-26 -84q0 -63 31.5 -95t82.5 -32q49 0 91.5 45.5t42.5 137.5zM29 135q0 114 123 138q79 16 105 26q22 7 31 25.5t9 61.5q0 58 -20 85q-29 39 -87 39q-121 0 -121 -137h-20v17q0 57 35.5 97.5t105.5 40.5q55 0 91 -31.5
t36 -92.5v-339q0 -49 30 -47q6 0 20 2v-18q-10 -2 -14 -2h-10q-23 0 -34.5 13.5t-11.5 53.5v20h-2q-18 -46 -52.5 -72.5t-82.5 -26.5q-62 0 -96.5 39t-34.5 108zM95 669h192v-18h-192v18z" />
    <glyph glyph-name="Abreve" unicode="&#x102;" horiz-adv-x="481" 
d="M381 250l-139 446h-2l-139 -446h280zM2 0l227 714h24l226 -714h-20l-73 232h-291l-73 -232h-20zM134 890h20q12 -93 86 -93q41 0 63 29.5t25 63.5h20q-6 -50 -33 -80.5t-76 -30.5q-45 0 -74 30t-31 81z" />
    <glyph glyph-name="abreve" unicode="&#x103;" horiz-adv-x="370" 
d="M297 189v117q-21 -25 -135 -47q-61 -12 -87 -42t-26 -84q0 -63 31.5 -95t82.5 -32q49 0 91.5 45.5t42.5 137.5zM29 135q0 114 123 138q79 16 105 26q22 7 31 25.5t9 61.5q0 58 -20 85q-29 39 -87 39q-121 0 -121 -137h-20v17q0 57 35.5 97.5t105.5 40.5q55 0 91 -31.5
t36 -92.5v-339q0 -49 30 -47q6 0 20 2v-18q-10 -2 -14 -2h-10q-23 0 -34.5 13.5t-11.5 53.5v20h-2q-18 -46 -52.5 -72.5t-82.5 -26.5q-62 0 -96.5 39t-34.5 108zM82 716h20q12 -93 86 -93q41 0 63 29.5t25 63.5h20q-6 -50 -33 -80.5t-76 -30.5q-45 0 -74 30t-31 81z" />
    <glyph glyph-name="Aogonek" unicode="&#x104;" horiz-adv-x="481" 
d="M2 0l227 714h24l226 -714q-50 -39 -71 -66t-21 -53q0 -23 16 -36.5t41 -13.5q29 0 59 21l11 -15q-30 -24 -70 -24q-36 0 -57 17.5t-21 48.5q0 60 93 121l-73 232h-291l-73 -232h-20zM381 250l-139 446h-2l-139 -446h280z" />
    <glyph glyph-name="aogonek" unicode="&#x105;" horiz-adv-x="370" 
d="M29 135q0 114 123 138q79 16 105 26q22 7 31 25.5t9 61.5q0 58 -20 85q-29 39 -87 39q-121 0 -121 -137h-20v17q0 57 35.5 97.5t105.5 40.5q55 0 91 -31.5t36 -92.5v-339q0 -49 30 -47q6 0 20 2v-18q-10 -2 -14 -2h-10h-8q-52 -38 -73.5 -65.5t-21.5 -53.5
q0 -23 16 -36.5t41 -13.5q29 0 59 21l11 -15q-30 -24 -70 -24q-36 0 -57 17.5t-21 48.5t23 62q25 31 76 64q-4 1 -8 7q-13 15 -13 55v20h-2q-18 -46 -52.5 -72.5t-82.5 -26.5q-62 0 -96.5 39t-34.5 108zM297 189v117q-21 -25 -135 -47q-61 -12 -87 -42t-26 -84
q0 -63 31.5 -95t82.5 -32q49 0 91.5 45.5t42.5 137.5z" />
    <glyph glyph-name="Cacute" unicode="&#x106;" horiz-adv-x="500" 
d="M456 237h20q-5 -49 -18 -90t-36.5 -78.5t-63.5 -59t-92 -21.5q-54 0 -95 22t-66 57t-40.5 84.5t-21 99t-5.5 106.5t5.5 106.5t21 99t40.5 84.5t66 57t95 22t94 -21t61 -55t31.5 -68.5t12.5 -71.5h-20q-4 87 -49 142.5t-129 55.5q-209 0 -209 -351t209 -351
q42 0 75.5 17.5t53 42t33 58.5t19 59.5t8.5 53.5zM247 765l83 139h20l-83 -139h-20z" />
    <glyph glyph-name="cacute" unicode="&#x107;" horiz-adv-x="370" 
d="M348 373h-20q-2 56 -35.5 96.5t-90.5 40.5q-145 0 -145 -252t145 -252q45 0 76 29t42 63t13 70h20q-4 -78 -45 -129t-106 -51q-86 0 -125.5 70.5t-39.5 214.5q0 255 165 255q64 0 105 -46.5t41 -108.5zM191 591l83 139h20l-83 -139h-20z" />
    <glyph glyph-name="Ccircumflex" unicode="&#x108;" horiz-adv-x="500" 
d="M456 237h20q-5 -49 -18 -90t-36.5 -78.5t-63.5 -59t-92 -21.5q-54 0 -95 22t-66 57t-40.5 84.5t-21 99t-5.5 106.5t5.5 106.5t21 99t40.5 84.5t66 57t95 22t94 -21t61 -55t31.5 -68.5t12.5 -71.5h-20q-4 87 -49 142.5t-129 55.5q-209 0 -209 -351t209 -351
q42 0 75.5 17.5t53 42t33 58.5t19 59.5t8.5 53.5zM165 765l88 139h28l88 -139h-20l-82 125l-82 -125h-20z" />
    <glyph glyph-name="ccircumflex" unicode="&#x109;" horiz-adv-x="370" 
d="M348 373h-20q-2 56 -35.5 96.5t-90.5 40.5q-145 0 -145 -252t145 -252q45 0 76 29t42 63t13 70h20q-4 -78 -45 -129t-106 -51q-86 0 -125.5 70.5t-39.5 214.5q0 255 165 255q64 0 105 -46.5t41 -108.5zM99 591l88 139h28l88 -139h-20l-82 125l-82 -125h-20z" />
    <glyph glyph-name="Cdotaccent" unicode="&#x10a;" horiz-adv-x="500" 
d="M456 237h20q-5 -49 -18 -90t-36.5 -78.5t-63.5 -59t-92 -21.5q-54 0 -95 22t-66 57t-40.5 84.5t-21 99t-5.5 106.5t5.5 106.5t21 99t40.5 84.5t66 57t95 22t94 -21t61 -55t31.5 -68.5t12.5 -71.5h-20q-4 87 -49 142.5t-129 55.5q-209 0 -209 -351t209 -351
q42 0 75.5 17.5t53 42t33 58.5t19 59.5t8.5 53.5zM255 783v103h20v-103h-20z" />
    <glyph glyph-name="cdotaccent" unicode="&#x10b;" horiz-adv-x="370" 
d="M348 373h-20q-2 56 -35.5 96.5t-90.5 40.5q-145 0 -145 -252t145 -252q45 0 76 29t42 63t13 70h20q-4 -78 -45 -129t-106 -51q-86 0 -125.5 70.5t-39.5 214.5q0 255 165 255q64 0 105 -46.5t41 -108.5zM191 609v103h20v-103h-20z" />
    <glyph glyph-name="Ccaron" unicode="&#x10c;" horiz-adv-x="500" 
d="M456 237h20q-5 -49 -18 -90t-36.5 -78.5t-63.5 -59t-92 -21.5q-54 0 -95 22t-66 57t-40.5 84.5t-21 99t-5.5 106.5t5.5 106.5t21 99t40.5 84.5t66 57t95 22t94 -21t61 -55t31.5 -68.5t12.5 -71.5h-20q-4 87 -49 142.5t-129 55.5q-209 0 -209 -351t209 -351
q42 0 75.5 17.5t53 42t33 58.5t19 59.5t8.5 53.5zM251 765l-88 139h20l82 -125l82 125h20l-88 -139h-28z" />
    <glyph glyph-name="ccaron" unicode="&#x10d;" horiz-adv-x="370" 
d="M348 373h-20q-2 56 -35.5 96.5t-90.5 40.5q-145 0 -145 -252t145 -252q45 0 76 29t42 63t13 70h20q-4 -78 -45 -129t-106 -51q-86 0 -125.5 70.5t-39.5 214.5q0 255 165 255q64 0 105 -46.5t41 -108.5zM185 591l-88 139h20l82 -125l82 125h20l-88 -139h-28z" />
    <glyph glyph-name="Dcaron" unicode="&#x10e;" horiz-adv-x="500" 
d="M78 696v-678h133q231 0 231 351q0 168 -49.5 247.5t-170.5 79.5h-144zM58 0v714h172q68 0 115 -26.5t72 -76t35 -107.5t10 -135q0 -107 -19.5 -181t-56.5 -114t-82 -57t-104 -17h-142zM201 765l-88 139h20l82 -125l82 125h20l-88 -139h-28z" />
    <glyph glyph-name="dcaron" unicode="&#x10f;" horiz-adv-x="453" 
d="M336 258q0 126 -37 189t-102 63q-140 0 -140 -243q0 -261 144 -261q62 0 98.5 64t36.5 188zM336 0v111h-3q-33 -123 -134 -123q-77 0 -119.5 68t-42.5 207q0 265 160 265q93 0 136 -116h3v302h20v-714h-20zM403 575l28 139h22l-34 -139h-16z" />
    <glyph glyph-name="Dcroat" unicode="&#x110;" horiz-adv-x="500" 
d="M78 364v-346h133q231 0 231 351q0 168 -49.5 247.5t-170.5 79.5h-144v-314h178v-18h-178zM58 0v364h-58v18h58v332h172q68 0 115 -26.5t72 -76t35 -107.5t10 -135q0 -107 -19.5 -181t-56.5 -114t-82 -57t-104 -17h-142z" />
    <glyph glyph-name="dcroat" unicode="&#x111;" horiz-adv-x="426" 
d="M336 0v111h-3q-33 -123 -134 -123q-77 0 -119.5 68t-42.5 207q0 265 160 265q93 0 136 -116h3v203h-132v18h132v81h20v-81h70v-18h-70v-615h-20zM336 258q0 126 -37 189t-102 63q-140 0 -140 -243q0 -261 144 -261q62 0 98.5 64t36.5 188z" />
    <glyph glyph-name="Emacron" unicode="&#x112;" horiz-adv-x="407" 
d="M58 0v714h325v-18h-305v-314h283v-18h-283v-346h313v-18h-333zM121 843h192v-18h-192v18z" />
    <glyph glyph-name="emacron" unicode="&#x113;" horiz-adv-x="389" 
d="M57 287h280v35q0 46 -9.5 85t-41.5 71t-84 32q-139 0 -145 -223zM357 269h-300q0 -126 33 -194.5t112 -68.5q45 0 76 29t42 63t13 70h20q-4 -78 -45 -129t-106 -51q-86 0 -125.5 70.5t-39.5 214.5q0 255 165 255q57 0 93 -32.5t49 -80t13 -110.5v-36zM108 669h192v-18
h-192v18z" />
    <glyph glyph-name="Ebreve" unicode="&#x114;" horiz-adv-x="407" 
d="M58 0v714h325v-18h-305v-314h283v-18h-283v-346h313v-18h-333zM109 890h20q12 -93 86 -93q41 0 63 29.5t25 63.5h20q-6 -50 -33 -80.5t-76 -30.5q-45 0 -74 30t-31 81z" />
    <glyph glyph-name="ebreve" unicode="&#x115;" horiz-adv-x="389" 
d="M57 287h280v35q0 46 -9.5 85t-41.5 71t-84 32q-139 0 -145 -223zM357 269h-300q0 -126 33 -194.5t112 -68.5q45 0 76 29t42 63t13 70h20q-4 -78 -45 -129t-106 -51q-86 0 -125.5 70.5t-39.5 214.5q0 255 165 255q57 0 93 -32.5t49 -80t13 -110.5v-36zM97 716h20
q12 -93 86 -93q41 0 63 29.5t25 63.5h20q-6 -50 -33 -80.5t-76 -30.5q-45 0 -74 30t-31 81z" />
    <glyph glyph-name="Edotaccent" unicode="&#x116;" horiz-adv-x="407" 
d="M58 0v714h325v-18h-305v-314h283v-18h-283v-346h313v-18h-333zM208 783v103h20v-103h-20z" />
    <glyph glyph-name="edotaccent" unicode="&#x117;" horiz-adv-x="389" 
d="M57 287h280v35q0 46 -9.5 85t-41.5 71t-84 32q-139 0 -145 -223zM357 269h-300q0 -126 33 -194.5t112 -68.5q45 0 76 29t42 63t13 70h20q-4 -78 -45 -129t-106 -51q-86 0 -125.5 70.5t-39.5 214.5q0 255 165 255q57 0 93 -32.5t49 -80t13 -110.5v-36zM191 609v103h20
v-103h-20z" />
    <glyph glyph-name="Eogonek" unicode="&#x118;" horiz-adv-x="407" 
d="M380 -148l11 -15q-30 -24 -70 -24q-36 0 -57 17.5t-21 48.5q0 64 93 121h-278v714h325v-18h-305v-314h283v-18h-283v-346h313v-18h-32q-95 -68 -95 -119q0 -23 16 -36.5t41 -13.5q29 0 59 21z" />
    <glyph glyph-name="eogonek" unicode="&#x119;" horiz-adv-x="389" 
d="M258 -148l11 -15q-30 -24 -70 -24q-36 0 -57 17.5t-21 48.5q0 33 22 62q19 26 52 47q-82 3 -120 71q-38 73 -38 214q0 255 165 255q57 0 93 -32.5t49 -80t13 -110.5v-36h-300q0 -126 33 -194.5t112 -68.5q45 0 76 29t42 63t13 70h20q-3 -58 -27 -101.5t-64 -64.5
q-20 -9 -40 -12q-38 -30 -55 -52q-25 -31 -25 -57q0 -23 16 -36.5t41 -13.5q29 0 59 21zM57 287h280v35q0 46 -9.5 85t-41.5 71t-84 32q-139 0 -145 -223z" />
    <glyph glyph-name="Ecaron" unicode="&#x11a;" horiz-adv-x="407" 
d="M58 0v714h325v-18h-305v-314h283v-18h-283v-346h313v-18h-333zM207 765l-88 139h20l82 -125l82 125h20l-88 -139h-28z" />
    <glyph glyph-name="ecaron" unicode="&#x11b;" horiz-adv-x="389" 
d="M57 287h280v35q0 46 -9.5 85t-41.5 71t-84 32q-139 0 -145 -223zM357 269h-300q0 -126 33 -194.5t112 -68.5q45 0 76 29t42 63t13 70h20q-4 -78 -45 -129t-106 -51q-86 0 -125.5 70.5t-39.5 214.5q0 255 165 255q57 0 93 -32.5t49 -80t13 -110.5v-36zM188 591l-88 139h20
l82 -125l82 125h20l-88 -139h-28z" />
    <glyph glyph-name="Gcircumflex" unicode="&#x11c;" horiz-adv-x="519" 
d="M456 0v155h-2q-17 -72 -65 -119.5t-123 -47.5q-54 0 -95 22t-66 57t-40.5 84.5t-21 99t-5.5 106.5t5.5 106.5t21 99t40.5 84.5t66 57t95 22t94 -21t61 -55t31.5 -68.5t12.5 -71.5h-20q-4 89 -49 143.5t-129 54.5q-209 0 -209 -351t209 -351q32 0 61.5 12.5t59 42t48 87.5
t20.5 138v42h-222v18h242v-346h-20zM164 765l88 139h28l88 -139h-20l-82 125l-82 -125h-20z" />
    <glyph glyph-name="gcircumflex" unicode="&#x11d;" horiz-adv-x="407" 
d="M329 274q0 236 -136 236t-136 -239q0 -253 132 -253q66 0 103 57t37 199zM329 -2v120h-2q-24 -118 -139 -118q-151 0 -151 266q0 262 158 262q60 0 92 -34.5t40 -75.5h2v98h20v-519q0 -181 -151 -181q-24 0 -45 5.5t-42 18.5t-34.5 40t-15.5 65h20q3 -54 33 -82.5
t84 -28.5q131 0 131 164zM109 591l88 139h28l88 -139h-20l-82 125l-82 -125h-20z" />
    <glyph glyph-name="Gbreve" unicode="&#x11e;" horiz-adv-x="519" 
d="M456 0v155h-2q-17 -72 -65 -119.5t-123 -47.5q-54 0 -95 22t-66 57t-40.5 84.5t-21 99t-5.5 106.5t5.5 106.5t21 99t40.5 84.5t66 57t95 22t94 -21t61 -55t31.5 -68.5t12.5 -71.5h-20q-4 89 -49 143.5t-129 54.5q-209 0 -209 -351t209 -351q32 0 61.5 12.5t59 42t48 87.5
t20.5 138v42h-222v18h242v-346h-20zM158 890h20q12 -93 86 -93q41 0 63 29.5t25 63.5h20q-6 -50 -33 -80.5t-76 -30.5q-45 0 -74 30t-31 81z" />
    <glyph glyph-name="gbreve" unicode="&#x11f;" horiz-adv-x="407" 
d="M329 274q0 236 -136 236t-136 -239q0 -253 132 -253q66 0 103 57t37 199zM329 -2v120h-2q-24 -118 -139 -118q-151 0 -151 266q0 262 158 262q60 0 92 -34.5t40 -75.5h2v98h20v-519q0 -181 -151 -181q-24 0 -45 5.5t-42 18.5t-34.5 40t-15.5 65h20q3 -54 33 -82.5
t84 -28.5q131 0 131 164zM104 716h20q12 -93 86 -93q41 0 63 29.5t25 63.5h20q-6 -50 -33 -80.5t-76 -30.5q-45 0 -74 30t-31 81z" />
    <glyph glyph-name="Gdotaccent" unicode="&#x120;" horiz-adv-x="519" 
d="M456 0v155h-2q-17 -72 -65 -119.5t-123 -47.5q-54 0 -95 22t-66 57t-40.5 84.5t-21 99t-5.5 106.5t5.5 106.5t21 99t40.5 84.5t66 57t95 22t94 -21t61 -55t31.5 -68.5t12.5 -71.5h-20q-4 89 -49 143.5t-129 54.5q-209 0 -209 -351t209 -351q32 0 61.5 12.5t59 42t48 87.5
t20.5 138v42h-222v18h242v-346h-20zM256 783v103h20v-103h-20z" />
    <glyph glyph-name="gdotaccent" unicode="&#x121;" horiz-adv-x="407" 
d="M329 274q0 236 -136 236t-136 -239q0 -253 132 -253q66 0 103 57t37 199zM329 -2v120h-2q-24 -118 -139 -118q-151 0 -151 266q0 262 158 262q60 0 92 -34.5t40 -75.5h2v98h20v-519q0 -181 -151 -181q-24 0 -45 5.5t-42 18.5t-34.5 40t-15.5 65h20q3 -54 33 -82.5
t84 -28.5q131 0 131 164zM193 609v103h20v-103h-20z" />
    <glyph glyph-name="Gcommaaccent" unicode="&#x122;" horiz-adv-x="519" 
d="M456 0v155h-2q-17 -72 -65 -119.5t-123 -47.5q-54 0 -95 22t-66 57t-40.5 84.5t-21 99t-5.5 106.5t5.5 106.5t21 99t40.5 84.5t66 57t95 22t94 -21t61 -55t31.5 -68.5t12.5 -71.5h-20q-4 89 -49 143.5t-129 54.5q-209 0 -209 -351t209 -351q32 0 61.5 12.5t59 42t48 87.5
t20.5 138v42h-222v18h242v-346h-20zM256 -127v77h20v-79q0 -25 -9 -38t-33 -17v18q14 4 18 11.5t4 27.5z" />
    <glyph glyph-name="gcommaaccent" unicode="&#x123;" horiz-adv-x="407" 
d="M329 274q0 236 -136 236t-136 -239q0 -253 132 -253q66 0 103 57t37 199zM329 -2v120h-2q-24 -118 -139 -118q-151 0 -151 266q0 262 158 262q60 0 92 -34.5t40 -75.5h2v98h20v-519q0 -181 -151 -181q-24 0 -45 5.5t-42 18.5t-34.5 40t-15.5 65h20q3 -54 33 -82.5
t84 -28.5q131 0 131 164zM204 1339v-77h-20v79q0 25 9 38t33 17v-18q-14 -4 -18 -11.5t-4 -27.5zM206 714v-77h-20v79q0 25 9 38t33 17v-18q-14 -4 -18 -11.5t-4 -27.5z" />
    <glyph glyph-name="Hcircumflex" unicode="&#x124;" horiz-adv-x="500" 
d="M58 0v714h20v-324h344v324h20v-714h-20v372h-344v-372h-20zM148 765l88 139h28l88 -139h-20l-82 125l-82 -125h-20z" />
    <glyph glyph-name="hcircumflex" unicode="&#x125;" horiz-adv-x="389" 
d="M51 0v714h20v-291h2q7 38 44 71.5t88 33.5q133 0 133 -157v-371h-20v369q0 79 -30.5 110t-82.5 31q-20 0 -40.5 -8t-43 -26.5t-36.5 -56.5t-14 -90v-329h-20zM92 765l88 139h28l88 -139h-20l-82 125l-82 -125h-20z" />
    <glyph glyph-name="Hbar" unicode="&#x126;" horiz-adv-x="500" 
d="M58 0v714h20v-198h344v198h20v-714h-20v372h-344v-372h-20zM78 390h344v108h-344v-108z" />
    <glyph glyph-name="hbar" unicode="&#x127;" horiz-adv-x="408" 
d="M70 633v81h20v-81h122v-18h-122v-192h2q7 38 44 71.5t88 33.5q133 0 133 -157v-371h-20v369q0 79 -30.5 110t-82.5 31q-20 0 -40.5 -8t-43 -26.5t-36.5 -56.5t-14 -90v-329h-20v615h-70v18h70z" />
    <glyph glyph-name="Itilde" unicode="&#x128;" horiz-adv-x="148" 
d="M64 0v714h20v-714h-20zM-17 796h-20q3 28 17.5 51.5t41.5 23.5q24 0 54.5 -28.5t47.5 -28.5q34 0 41 59h20q-13 -77 -61 -77q-22 0 -57 28.5t-46 28.5q-26 0 -38 -57z" />
    <glyph glyph-name="itilde" unicode="&#x129;" 
d="M55 0v516h20v-516h-20zM-26 622h-20q3 28 17.5 51.5t41.5 23.5q24 0 54.5 -28.5t47.5 -28.5q34 0 41 59h20q-13 -77 -61 -77q-22 0 -57 28.5t-46 28.5q-26 0 -38 -57z" />
    <glyph glyph-name="Imacron" unicode="&#x12a;" horiz-adv-x="148" 
d="M64 0v714h20v-714h-20zM-21 843h192v-18h-192v18z" />
    <glyph glyph-name="imacron" unicode="&#x12b;" 
d="M55 0v516h20v-516h-20zM-30 669h192v-18h-192v18z" />
    <glyph glyph-name="Iogonek" unicode="&#x12e;" horiz-adv-x="148" 
d="M64 0v714h20v-714q-85 -71 -85 -119q0 -23 14.5 -36.5t37.5 -13.5q26 0 53 21l10 -15q-27 -24 -63 -24q-33 0 -51.5 17.5t-18.5 48.5q0 63 83 121z" />
    <glyph glyph-name="iogonek" unicode="&#x12f;" 
d="M55 0v516h20v-516q-85 -71 -85 -119q0 -23 14.5 -36.5t37.5 -13.5q26 0 53 21l10 -15q-27 -24 -63 -24q-33 0 -51.5 17.5t-18.5 48.5q0 64 83 121zM55 616v98h20v-98h-20z" />
    <glyph glyph-name="Idotaccent" unicode="&#x130;" horiz-adv-x="148" 
d="M64 0v714h20v-714h-20zM64 783v103h20v-103h-20z" />
    <glyph glyph-name="dotlessi" unicode="&#x131;" 
d="M55 0v516h20v-516h-20z" />
    <glyph glyph-name="Jcircumflex" unicode="&#x134;" horiz-adv-x="389" 
d="M311 158v556h20v-559q0 -85 -40.5 -126t-111.5 -41q-83 0 -121 51t-38 132v40h20v-45q0 -77 35.5 -118.5t102.5 -41.5q133 0 133 152zM215 765l88 139h28l88 -139h-20l-82 125l-82 -125h-20z" />
    <glyph glyph-name="jcircumflex" unicode="&#x135;" 
d="M55 -75v591h20v-589q0 -57 -22 -80t-68 -23h-13q-10 0 -13 1v18q5 -1 15 -1h12q39 0 54 18t15 65zM-41 591l88 139h28l88 -139h-20l-82 125l-82 -125h-20z" />
    <glyph glyph-name="Kcommaaccent" unicode="&#x136;" horiz-adv-x="444" 
d="M58 0v714h20v-421h2l318 421h23l-229 -301l249 -413h-21l-240 398l-102 -135v-263h-20zM218 -127v77h20v-79q0 -25 -9 -38t-33 -17v18q14 4 18 11.5t4 27.5z" />
    <glyph glyph-name="kcommaaccent" unicode="&#x137;" horiz-adv-x="352" 
d="M51 0v714h20v-487l244 289h26l-162 -191l191 -325h-23l-182 310l-94 -111v-199h-20zM184 -127v77h20v-79q0 -25 -9 -38t-33 -17v18q14 4 18 11.5t4 27.5z" />
    <glyph glyph-name="Lacute" unicode="&#x139;" horiz-adv-x="407" 
d="M58 0v714h20v-696h305v-18h-325zM58 765l83 139h20l-83 -139h-20z" />
    <glyph glyph-name="lacute" unicode="&#x13a;" 
d="M55 0v714h20v-714h-20zM55 765l83 139h20l-83 -139h-20z" />
    <glyph glyph-name="Lcommaaccent" unicode="&#x13b;" horiz-adv-x="407" 
d="M58 0v714h20v-696h305v-18h-325zM201 -127v77h20v-79q0 -25 -9 -38t-33 -17v18q14 4 18 11.5t4 27.5z" />
    <glyph glyph-name="lcommaaccent" unicode="&#x13c;" 
d="M55 0v714h20v-714h-20zM56 -127v77h20v-79q0 -25 -9 -38t-33 -17v18q14 4 18 11.5t4 27.5z" />
    <glyph glyph-name="Lcaron" unicode="&#x13d;" horiz-adv-x="407" 
d="M58 0v714h20v-696h305v-18h-325zM168 575l28 139h22l-34 -139h-16z" />
    <glyph glyph-name="lcaron" unicode="&#x13e;" horiz-adv-x="172" 
d="M55 0v714h20v-714h-20zM122 575l28 139h22l-34 -139h-16z" />
    <glyph glyph-name="Ldot" unicode="&#x13f;" horiz-adv-x="407" 
d="M58 0v714h20v-696h305v-18h-325zM197 413v103h20v-103h-20z" />
    <glyph glyph-name="ldot" unicode="&#x140;" horiz-adv-x="191" 
d="M55 0v714h20v-714h-20zM135 413v103h20v-103h-20z" />
    <glyph glyph-name="Lslash" unicode="&#x141;" horiz-adv-x="407" 
d="M58 0v320l-68 -53v25l68 53v369h20v-353l170 133v-25l-170 -133v-318h305v-18h-325z" />
    <glyph glyph-name="lslash" unicode="&#x142;" 
d="M55 0v341h-2l-45 -57v31l47 57v342h20v-318h2l45 57v-31l-47 -57v-365h-20z" />
    <glyph glyph-name="Nacute" unicode="&#x143;" horiz-adv-x="500" 
d="M53 0v714h33l339 -682h2v682h20v-714h-29l-343 696h-2v-696h-20zM231 765l83 139h20l-83 -139h-20z" />
    <glyph glyph-name="nacute" unicode="&#x144;" horiz-adv-x="389" 
d="M51 0v516h20v-93h2q7 38 44 71.5t88 33.5q133 0 133 -157v-371h-20v369q0 79 -30.5 110t-82.5 31q-20 0 -40.5 -8t-43 -26.5t-36.5 -56.5t-14 -90v-329h-20zM173 591l83 139h20l-83 -139h-20z" />
    <glyph glyph-name="Ncommaaccent" unicode="&#x145;" horiz-adv-x="500" 
d="M53 0v714h33l339 -682h2v682h20v-714h-29l-343 696h-2v-696h-20zM235 -127v77h20v-79q0 -25 -9 -38t-33 -17v18q14 4 18 11.5t4 27.5z" />
    <glyph glyph-name="ncommaaccent" unicode="&#x146;" horiz-adv-x="389" 
d="M51 0v516h20v-93h2q7 38 44 71.5t88 33.5q133 0 133 -157v-371h-20v369q0 79 -30.5 110t-82.5 31q-20 0 -40.5 -8t-43 -26.5t-36.5 -56.5t-14 -90v-329h-20zM183 -127v77h20v-79q0 -25 -9 -38t-33 -17v18q14 4 18 11.5t4 27.5z" />
    <glyph glyph-name="Ncaron" unicode="&#x147;" horiz-adv-x="500" 
d="M53 0v714h33l339 -682h2v682h20v-714h-29l-343 696h-2v-696h-20zM236 765l-88 139h20l82 -125l82 125h20l-88 -139h-28z" />
    <glyph glyph-name="ncaron" unicode="&#x148;" horiz-adv-x="389" 
d="M51 0v516h20v-93h2q7 38 44 71.5t88 33.5q133 0 133 -157v-371h-20v369q0 79 -30.5 110t-82.5 31q-20 0 -40.5 -8t-43 -26.5t-36.5 -56.5t-14 -90v-329h-20zM182 591l-88 139h20l82 -125l82 125h20l-88 -139h-28z" />
    <glyph glyph-name="Omacron" unicode="&#x14c;" horiz-adv-x="537" 
d="M58 357q0 -351 209 -351q212 0 212 351t-212 351q-209 0 -209 -351zM499 357q0 -30 -0.5 -50.5t-5 -62.5t-12.5 -72t-24.5 -67.5t-39.5 -60.5t-60 -39.5t-84 -16.5q-67 0 -115 32t-73 87.5t-36 116.5t-11 133q0 56 6 106t22 99.5t41 84.5t65.5 57t93.5 22q47 0 84 -16
t61 -40t41.5 -60.5t26 -68t13.5 -71.5t6 -63t1 -50zM171 843h192v-18h-192v18z" />
    <glyph glyph-name="omacron" unicode="&#x14d;" horiz-adv-x="407" 
d="M57 258q0 -252 147 -252q77 0 111.5 62t34.5 190t-34.5 190t-111.5 62q-147 0 -147 -252zM204 -12q-167 0 -167 270t167 270q166 0 166 -270t-166 -270zM109 669h192v-18h-192v18z" />
    <glyph glyph-name="Obreve" unicode="&#x14e;" horiz-adv-x="537" 
d="M58 357q0 -351 209 -351q212 0 212 351t-212 351q-209 0 -209 -351zM499 357q0 -30 -0.5 -50.5t-5 -62.5t-12.5 -72t-24.5 -67.5t-39.5 -60.5t-60 -39.5t-84 -16.5q-67 0 -115 32t-73 87.5t-36 116.5t-11 133q0 56 6 106t22 99.5t41 84.5t65.5 57t93.5 22q47 0 84 -16
t61 -40t41.5 -60.5t26 -68t13.5 -71.5t6 -63t1 -50zM160 890h20q12 -93 86 -93q41 0 63 29.5t25 63.5h20q-6 -50 -33 -80.5t-76 -30.5q-45 0 -74 30t-31 81z" />
    <glyph glyph-name="obreve" unicode="&#x14f;" horiz-adv-x="407" 
d="M57 258q0 -252 147 -252q77 0 111.5 62t34.5 190t-34.5 190t-111.5 62q-147 0 -147 -252zM204 -12q-167 0 -167 270t167 270q166 0 166 -270t-166 -270zM98 716h20q12 -93 86 -93q41 0 63 29.5t25 63.5h20q-6 -50 -33 -80.5t-76 -30.5q-45 0 -74 30t-31 81z" />
    <glyph glyph-name="Ohungarumlaut" unicode="&#x150;" horiz-adv-x="537" 
d="M58 357q0 -351 209 -351q212 0 212 351t-212 351q-209 0 -209 -351zM499 357q0 -30 -0.5 -50.5t-5 -62.5t-12.5 -72t-24.5 -67.5t-39.5 -60.5t-60 -39.5t-84 -16.5q-67 0 -115 32t-73 87.5t-36 116.5t-11 133q0 56 6 106t22 99.5t41 84.5t65.5 57t93.5 22q47 0 84 -16
t61 -40t41.5 -60.5t26 -68t13.5 -71.5t6 -63t1 -50zM319 765l83 139h20l-83 -139h-20zM190 765l83 139h20l-83 -139h-20z" />
    <glyph glyph-name="ohungarumlaut" unicode="&#x151;" horiz-adv-x="407" 
d="M57 258q0 -252 147 -252q77 0 111.5 62t34.5 190t-34.5 190t-111.5 62q-147 0 -147 -252zM204 -12q-167 0 -167 270t167 270q166 0 166 -270t-166 -270zM258 591l83 139h20l-83 -139h-20zM129 591l83 139h20l-83 -139h-20z" />
    <glyph glyph-name="OE" unicode="&#x152;" horiz-adv-x="759" 
d="M410 161v385q0 79 -32 120.5t-111 41.5q-209 0 -209 -351t209 -351q74 0 108.5 44.5t34.5 110.5zM410 652v62h318v-18h-298v-314h277v-18h-277v-346h313v-18h-333v65h-2q-41 -77 -142 -77q-54 0 -95 22t-66 57t-40.5 84.5t-21 99t-5.5 106.5t5.5 106.5t21 99t40.5 84.5
t66 57t95 22q108 0 142 -74h2z" />
    <glyph glyph-name="oe" unicode="&#x153;" horiz-adv-x="667" 
d="M630 269h-274v-52q0 -56 10.5 -101t40 -77.5t74.5 -32.5q63 0 91.5 51.5t31.5 123.5h20q-3 -82 -36.5 -137.5t-107.5 -55.5q-35 0 -62 15.5t-41 39.5t-21.5 47t-8.5 43h-2q-24 -145 -141 -145q-167 0 -167 270t167 270q31 0 55.5 -11.5t39.5 -27.5t25.5 -37t14.5 -36
t6 -29h2q4 54 40.5 97.5t90.5 43.5q78 0 115 -63.5t37 -176.5v-19zM356 287h254q0 223 -132 223q-52 0 -87 -52.5t-35 -157.5v-13zM57 258q0 -252 147 -252q35 0 60.5 16t39 40t21 64t9.5 74t2 84q0 226 -132 226q-147 0 -147 -252z" />
    <glyph glyph-name="Racute" unicode="&#x154;" horiz-adv-x="481" 
d="M58 0v714h193q79 0 129.5 -42.5t50.5 -144.5q0 -79 -38 -124.5t-105 -53.5v-2q81 -10 108.5 -54.5t29.5 -143.5q2 -83 4.5 -104t12.5 -45h-20q-6 14 -8.5 23.5t-5 39.5t-3.5 88q-4 114 -40.5 150t-142.5 36h-145v-337h-20zM78 696v-341h137q196 0 196 172q0 169 -162 169
h-171zM200 765l83 139h20l-83 -139h-20z" />
    <glyph glyph-name="racute" unicode="&#x155;" horiz-adv-x="222" 
d="M51 0v516h20v-93h2q7 38 44 71.5t88 33.5h20v-18h-20q-20 0 -40.5 -8t-43 -26.5t-36.5 -56.5t-14 -90v-329h-20zM54 591l83 139h20l-83 -139h-20z" />
    <glyph glyph-name="Rcommaaccent" unicode="&#x156;" horiz-adv-x="481" 
d="M58 0v714h193q79 0 129.5 -42.5t50.5 -144.5q0 -79 -38 -124.5t-105 -53.5v-2q81 -10 108.5 -54.5t29.5 -143.5q2 -83 4.5 -104t12.5 -45h-20q-6 14 -8.5 23.5t-5 39.5t-3.5 88q-4 114 -40.5 150t-142.5 36h-145v-337h-20zM78 696v-341h137q196 0 196 172q0 169 -162 169
h-171zM230 -127v77h20v-79q0 -25 -9 -38t-33 -17v18q14 4 18 11.5t4 27.5z" />
    <glyph glyph-name="rcommaaccent" unicode="&#x157;" horiz-adv-x="222" 
d="M51 0v516h20v-93h2q7 38 44 71.5t88 33.5h20v-18h-20q-20 0 -40.5 -8t-43 -26.5t-36.5 -56.5t-14 -90v-329h-20zM52 -127v77h20v-79q0 -25 -9 -38t-33 -17v18q14 4 18 11.5t4 27.5z" />
    <glyph glyph-name="Rcaron" unicode="&#x158;" horiz-adv-x="481" 
d="M58 0v714h193q79 0 129.5 -42.5t50.5 -144.5q0 -79 -38 -124.5t-105 -53.5v-2q81 -10 108.5 -54.5t29.5 -143.5q2 -83 4.5 -104t12.5 -45h-20q-6 14 -8.5 23.5t-5 39.5t-3.5 88q-4 114 -40.5 150t-142.5 36h-145v-337h-20zM78 696v-341h137q196 0 196 172q0 169 -162 169
h-171zM207 765l-88 139h20l82 -125l82 125h20l-88 -139h-28z" />
    <glyph glyph-name="rcaron" unicode="&#x159;" horiz-adv-x="222" 
d="M51 0v516h20v-93h2q7 38 44 71.5t88 33.5h20v-18h-20q-20 0 -40.5 -8t-43 -26.5t-36.5 -56.5t-14 -90v-329h-20zM120 591l-88 139h20l82 -125l82 125h20l-88 -139h-28z" />
    <glyph glyph-name="Sacute" unicode="&#x15a;" horiz-adv-x="463" 
d="M31 187v31h20v-31q0 -83 46 -132t129 -49q81 0 133.5 47t52.5 139q0 39 -14 67.5t-44 48t-52.5 29t-64.5 22.5q-48 15 -76.5 27.5t-57 33.5t-41.5 52.5t-13 75.5q0 28 9.5 57t29.5 57.5t57.5 46t87.5 17.5q96 0 141 -53t45 -126v-15h-20v17q0 75 -45 117t-123 42
q-77 0 -119.5 -48.5t-42.5 -115.5q0 -45 20 -76.5t52 -48.5t70.5 -30.5t77.5 -27.5t71 -33.5t52 -55t20 -85.5q0 -80 -51.5 -139.5t-153.5 -59.5q-98 0 -147 57.5t-49 141.5zM222 765l83 139h20l-83 -139h-20z" />
    <glyph glyph-name="sacute" unicode="&#x15b;" horiz-adv-x="333" 
d="M169 -12q-144 0 -144 158v16h20v-19q0 -137 122 -137q61 0 91 37t30 86q0 46 -26 74t-63 42.5t-74.5 30t-63.5 47t-26 81.5q0 52 32 84q36 40 100 40q68 0 98 -41t30 -99v-14h-20v17q0 119 -109 119q-52 0 -81.5 -30.5t-29.5 -79.5q0 -44 26 -71t63.5 -41.5t74.5 -29.5
t63 -46.5t26 -81.5q0 -60 -37 -101t-102 -41zM155 591l83 139h20l-83 -139h-20z" />
    <glyph glyph-name="Scircumflex" unicode="&#x15c;" horiz-adv-x="463" 
d="M31 187v31h20v-31q0 -83 46 -132t129 -49q81 0 133.5 47t52.5 139q0 39 -14 67.5t-44 48t-52.5 29t-64.5 22.5q-48 15 -76.5 27.5t-57 33.5t-41.5 52.5t-13 75.5q0 28 9.5 57t29.5 57.5t57.5 46t87.5 17.5q96 0 141 -53t45 -126v-15h-20v17q0 75 -45 117t-123 42
q-77 0 -119.5 -48.5t-42.5 -115.5q0 -45 20 -76.5t52 -48.5t70.5 -30.5t77.5 -27.5t71 -33.5t52 -55t20 -85.5q0 -80 -51.5 -139.5t-153.5 -59.5q-98 0 -147 57.5t-49 141.5zM137 765l88 139h28l88 -139h-20l-82 125l-82 -125h-20z" />
    <glyph glyph-name="scircumflex" unicode="&#x15d;" horiz-adv-x="333" 
d="M169 -12q-144 0 -144 158v16h20v-19q0 -137 122 -137q61 0 91 37t30 86q0 46 -26 74t-63 42.5t-74.5 30t-63.5 47t-26 81.5q0 52 32 84q36 40 100 40q68 0 98 -41t30 -99v-14h-20v17q0 119 -109 119q-52 0 -81.5 -30.5t-29.5 -79.5q0 -44 26 -71t63.5 -41.5t74.5 -29.5
t63 -46.5t26 -81.5q0 -60 -37 -101t-102 -41zM69 591l88 139h28l88 -139h-20l-82 125l-82 -125h-20z" />
    <glyph glyph-name="Scedilla" unicode="&#x15e;" horiz-adv-x="463" 
d="M31 187v31h20v-31q0 -83 46 -132t129 -49q81 0 133.5 47t52.5 139q0 39 -14 67.5t-44 48t-52.5 29t-64.5 22.5q-48 15 -76.5 27.5t-57 33.5t-41.5 52.5t-13 75.5q0 28 9.5 57t29.5 57.5t57.5 46t87.5 17.5q96 0 141 -53t45 -126v-15h-20v17q0 75 -45 117t-123 42
q-77 0 -119.5 -48.5t-42.5 -115.5q0 -45 20 -76.5t52 -48.5t70.5 -30.5t77.5 -27.5t71 -33.5t52 -55t20 -85.5q0 -58 -27.5 -106.5t-83.5 -74.5q-38 -17 -89 -18l-31 -45l2 -2q16 6 34 6q28 0 48.5 -15.5t20.5 -43.5q0 -27 -24.5 -51t-68.5 -24q-55 0 -79 18l8 17
q32 -17 69 -17q33 0 54 15.5t21 39.5q0 43 -53 43q-40 0 -60 -18l-8 10l47 67q-41 3 -74 17q-107 49 -107 182z" />
    <glyph glyph-name="Scedilla" unicode="&#xf6c1;" horiz-adv-x="463" 
d="M31 187v31h20v-31q0 -83 46 -132t129 -49q81 0 133.5 47t52.5 139q0 39 -14 67.5t-44 48t-52.5 29t-64.5 22.5q-48 15 -76.5 27.5t-57 33.5t-41.5 52.5t-13 75.5q0 28 9.5 57t29.5 57.5t57.5 46t87.5 17.5q96 0 141 -53t45 -126v-15h-20v17q0 75 -45 117t-123 42
q-77 0 -119.5 -48.5t-42.5 -115.5q0 -45 20 -76.5t52 -48.5t70.5 -30.5t77.5 -27.5t71 -33.5t52 -55t20 -85.5q0 -58 -27.5 -106.5t-83.5 -74.5q-38 -17 -89 -18l-31 -45l2 -2q16 6 34 6q28 0 48.5 -15.5t20.5 -43.5q0 -27 -24.5 -51t-68.5 -24q-55 0 -79 18l8 17
q32 -17 69 -17q33 0 54 15.5t21 39.5q0 43 -53 43q-40 0 -60 -18l-8 10l47 67q-41 3 -74 17q-107 49 -107 182z" />
    <glyph glyph-name="scedilla" unicode="&#x15f;" horiz-adv-x="333" 
d="M169 -12h-6l-31 -45l2 -2q16 6 34 6q28 0 48.5 -15.5t20.5 -43.5q0 -27 -24.5 -51t-68.5 -24q-55 0 -79 18l8 17q32 -17 69 -17q33 0 54 15.5t21 39.5q0 43 -53 43q-40 0 -60 -18l-8 10l48 69q-119 12 -119 156v16h20v-19q0 -137 122 -137q61 0 91 37t30 86q0 46 -26 74
t-63 42.5t-74.5 30t-63.5 47t-26 81.5q0 52 32 84q36 40 100 40q68 0 98 -41t30 -99v-14h-20v17q0 119 -109 119q-52 0 -81.5 -30.5t-29.5 -79.5q0 -44 26 -71t63.5 -41.5t74.5 -29.5t63 -46.5t26 -81.5q0 -60 -37 -101t-102 -41z" />
    <glyph glyph-name="scedilla" unicode="&#xf6c2;" horiz-adv-x="333" 
d="M169 -12h-6l-31 -45l2 -2q16 6 34 6q28 0 48.5 -15.5t20.5 -43.5q0 -27 -24.5 -51t-68.5 -24q-55 0 -79 18l8 17q32 -17 69 -17q33 0 54 15.5t21 39.5q0 43 -53 43q-40 0 -60 -18l-8 10l48 69q-119 12 -119 156v16h20v-19q0 -137 122 -137q61 0 91 37t30 86q0 46 -26 74
t-63 42.5t-74.5 30t-63.5 47t-26 81.5q0 52 32 84q36 40 100 40q68 0 98 -41t30 -99v-14h-20v17q0 119 -109 119q-52 0 -81.5 -30.5t-29.5 -79.5q0 -44 26 -71t63.5 -41.5t74.5 -29.5t63 -46.5t26 -81.5q0 -60 -37 -101t-102 -41z" />
    <glyph glyph-name="Scaron" unicode="&#x160;" horiz-adv-x="463" 
d="M31 187v31h20v-31q0 -83 46 -132t129 -49q81 0 133.5 47t52.5 139q0 39 -14 67.5t-44 48t-52.5 29t-64.5 22.5q-48 15 -76.5 27.5t-57 33.5t-41.5 52.5t-13 75.5q0 28 9.5 57t29.5 57.5t57.5 46t87.5 17.5q96 0 141 -53t45 -126v-15h-20v17q0 75 -45 117t-123 42
q-77 0 -119.5 -48.5t-42.5 -115.5q0 -45 20 -76.5t52 -48.5t70.5 -30.5t77.5 -27.5t71 -33.5t52 -55t20 -85.5q0 -80 -51.5 -139.5t-153.5 -59.5q-98 0 -147 57.5t-49 141.5zM219 765l-88 139h20l82 -125l82 125h20l-88 -139h-28z" />
    <glyph glyph-name="scaron" unicode="&#x161;" horiz-adv-x="333" 
d="M169 -12q-144 0 -144 158v16h20v-19q0 -137 122 -137q61 0 91 37t30 86q0 46 -26 74t-63 42.5t-74.5 30t-63.5 47t-26 81.5q0 52 32 84q36 40 100 40q68 0 98 -41t30 -99v-14h-20v17q0 119 -109 119q-52 0 -81.5 -30.5t-29.5 -79.5q0 -44 26 -71t63.5 -41.5t74.5 -29.5
t63 -46.5t26 -81.5q0 -60 -37 -101t-102 -41zM154 591l-88 139h20l82 -125l82 125h20l-88 -139h-28z" />
    <glyph glyph-name="Tcommaaccent" unicode="&#x162;" horiz-adv-x="408" 
d="M194 0v696h-194v18h408v-18h-194v-696h-20zM194 -127v77h20v-79q0 -25 -9 -38t-33 -17v18q14 4 18 11.5t4 27.5z" />
    <glyph glyph-name="tcommaaccent" unicode="&#x163;" horiz-adv-x="185" 
d="M78 79v419h-67v18h67v160h20v-160h88v-18h-88v-417q0 -36 12 -49.5t45 -13.5q26 0 39 3v-18q-15 -3 -40 -3q-38 0 -57 17.5t-19 61.5zM123 -127v77h20v-79q0 -25 -9 -38t-33 -17v18q14 4 18 11.5t4 27.5z" />
    <glyph glyph-name="Tcaron" unicode="&#x164;" horiz-adv-x="408" 
d="M194 0v696h-194v18h408v-18h-194v-696h-20zM190 765l-88 139h20l82 -125l82 125h20l-88 -139h-28z" />
    <glyph glyph-name="tcaron" unicode="&#x165;" horiz-adv-x="242" 
d="M166 575l28 139h22l-34 -139h-16zM78 79v419h-67v18h67v160h20v-160h88v-18h-88v-417q0 -36 12 -49.5t45 -13.5q26 0 39 3v-18q-15 -3 -40 -3q-38 0 -57 17.5t-19 61.5z" />
    <glyph glyph-name="Tbar" unicode="&#x166;" horiz-adv-x="408" 
d="M194 484v212h-194v18h408v-18h-194v-212h126v-18h-126v-466h-20v466h-126v18h126z" />
    <glyph glyph-name="tbar" unicode="&#x167;" horiz-adv-x="185" 
d="M78 346v152h-67v18h67v160h20v-160h88v-18h-88v-152h96v-18h-96v-247q0 -36 12 -49.5t45 -13.5q26 0 39 3v-18q-15 -3 -40 -3q-38 0 -57 17.5t-19 61.5v249h-75v18h75z" />
    <glyph glyph-name="Utilde" unicode="&#x168;" horiz-adv-x="481" 
d="M432 714v-521q0 -99 -49.5 -152t-142.5 -53q-91 0 -141 53t-50 152v521h20v-518q0 -190 171 -190q172 0 172 190v518h20zM150 796h-20q3 28 17.5 51.5t41.5 23.5q24 0 54.5 -28.5t47.5 -28.5q34 0 41 59h20q-13 -77 -61 -77q-22 0 -57 28.5t-46 28.5q-26 0 -38 -57z" />
    <glyph glyph-name="utilde" unicode="&#x169;" horiz-adv-x="389" 
d="M338 516v-516h-20v93h-2q-7 -38 -44 -71.5t-88 -33.5q-133 0 -133 157v371h20v-369q0 -80 30.5 -110.5t82.5 -30.5q19 0 39.5 8t43 26.5t37 56.5t14.5 90v329h20zM105 622h-20q3 28 17.5 51.5t41.5 23.5q24 0 54.5 -28.5t47.5 -28.5q34 0 41 59h20q-13 -77 -61 -77
q-22 0 -57 28.5t-46 28.5q-26 0 -38 -57z" />
    <glyph glyph-name="Umacron" unicode="&#x16a;" horiz-adv-x="481" 
d="M432 714v-521q0 -99 -49.5 -152t-142.5 -53q-91 0 -141 53t-50 152v521h20v-518q0 -190 171 -190q172 0 172 190v518h20zM143 843h192v-18h-192v18z" />
    <glyph glyph-name="umacron" unicode="&#x16b;" horiz-adv-x="389" 
d="M338 516v-516h-20v93h-2q-7 -38 -44 -71.5t-88 -33.5q-133 0 -133 157v371h20v-369q0 -80 30.5 -110.5t82.5 -30.5q19 0 39.5 8t43 26.5t37 56.5t14.5 90v329h20zM97 669h192v-18h-192v18z" />
    <glyph glyph-name="Ubreve" unicode="&#x16c;" horiz-adv-x="481" 
d="M432 714v-521q0 -99 -49.5 -152t-142.5 -53q-91 0 -141 53t-50 152v521h20v-518q0 -190 171 -190q172 0 172 190v518h20zM136 890h20q12 -93 86 -93q41 0 63 29.5t25 63.5h20q-6 -50 -33 -80.5t-76 -30.5q-45 0 -74 30t-31 81z" />
    <glyph glyph-name="ubreve" unicode="&#x16d;" horiz-adv-x="389" 
d="M338 516v-516h-20v93h-2q-7 -38 -44 -71.5t-88 -33.5q-133 0 -133 157v371h20v-369q0 -80 30.5 -110.5t82.5 -30.5q19 0 39.5 8t43 26.5t37 56.5t14.5 90v329h20zM86 716h20q12 -93 86 -93q41 0 63 29.5t25 63.5h20q-6 -50 -33 -80.5t-76 -30.5q-45 0 -74 30t-31 81z" />
    <glyph glyph-name="Uring" unicode="&#x16e;" horiz-adv-x="481" 
d="M432 714v-521q0 -99 -49.5 -152t-142.5 -53q-91 0 -141 53t-50 152v521h20v-518q0 -190 171 -190q172 0 172 190v518h20zM155 826q0 35 25 60t60 25t60 -25t25 -60q0 -36 -25 -60.5t-60 -24.5q-36 0 -60.5 24.5t-24.5 60.5zM305 826q0 29 -19 48t-46 19t-46 -19t-19 -48
t19 -48t46 -19t46 19t19 48z" />
    <glyph glyph-name="uring" unicode="&#x16f;" horiz-adv-x="389" 
d="M338 516v-516h-20v93h-2q-7 -38 -44 -71.5t-88 -33.5q-133 0 -133 157v371h20v-369q0 -80 30.5 -110.5t82.5 -30.5q19 0 39.5 8t43 26.5t37 56.5t14.5 90v329h20zM111 676q0 35 25 60t60 25t60 -25t25 -60q0 -36 -25 -60.5t-60 -24.5q-36 0 -60.5 24.5t-24.5 60.5z
M261 676q0 29 -19 48t-46 19t-46 -19t-19 -48t19 -48t46 -19t46 19t19 48z" />
    <glyph glyph-name="Uhungarumlaut" unicode="&#x170;" horiz-adv-x="481" 
d="M432 714v-521q0 -99 -49.5 -152t-142.5 -53q-91 0 -141 53t-50 152v521h20v-518q0 -190 171 -190q172 0 172 190v518h20zM292 765l83 139h20l-83 -139h-20zM163 765l83 139h20l-83 -139h-20z" />
    <glyph glyph-name="uhungarumlaut" unicode="&#x171;" horiz-adv-x="389" 
d="M338 516v-516h-20v93h-2q-7 -38 -44 -71.5t-88 -33.5q-133 0 -133 157v371h20v-369q0 -80 30.5 -110.5t82.5 -30.5q19 0 39.5 8t43 26.5t37 56.5t14.5 90v329h20zM250 591l83 139h20l-83 -139h-20zM121 591l83 139h20l-83 -139h-20z" />
    <glyph glyph-name="Uogonek" unicode="&#x172;" horiz-adv-x="481" 
d="M303 -148l11 -15q-30 -24 -70 -24q-36 0 -57 17.5t-21 48.5q0 33 22 62q19 26 52 47q-91 0 -141 53t-50 152v521h20v-518q0 -190 171 -190q172 0 172 190v518h20v-521q0 -100 -50 -153q-44 -44 -116 -51q-34 -25 -54 -51q-25 -31 -25 -57q0 -23 16 -36.5t41 -13.5
q29 0 59 21z" />
    <glyph glyph-name="uogonek" unicode="&#x173;" horiz-adv-x="389" 
d="M357 -148l10 -15q-27 -24 -63 -24q-33 0 -51.5 17.5t-18.5 48.5q0 64 84 121v93h-2q-7 -38 -44 -71.5t-88 -33.5q-133 0 -133 157v371h20v-369q0 -80 30.5 -110.5t82.5 -30.5q19 0 39.5 8t43 26.5t37 56.5t14.5 90v329h20v-516q-47 -38 -66.5 -65.5t-19.5 -53.5
q0 -23 14.5 -36.5t37.5 -13.5q26 0 53 21z" />
    <glyph glyph-name="Wcircumflex" unicode="&#x174;" horiz-adv-x="704" 
d="M174 0l-159 714h20l151 -682h2l150 682h28l147 -682h2l154 682h20l-162 -714h-26l-149 688h-2l-151 -688h-25zM251 765l88 139h28l88 -139h-20l-82 125l-82 -125h-20z" />
    <glyph glyph-name="wcircumflex" unicode="&#x175;" horiz-adv-x="500" 
d="M116 0l-105 516h20l98 -498h2l105 498h29l102 -498h2l100 498h20l-108 -516h-27l-103 498h-2l-105 -498h-28zM151 591l88 139h28l88 -139h-20l-82 125l-82 -125h-20z" />
    <glyph glyph-name="Ycircumflex" unicode="&#x176;" horiz-adv-x="426" 
d="M203 0v301l-200 413h21l189 -392l190 392h20l-200 -413v-301h-20zM111 765l88 139h28l88 -139h-20l-82 125l-82 -125h-20z" />
    <glyph glyph-name="ycircumflex" unicode="&#x177;" horiz-adv-x="315" 
d="M153 -4l-151 520h20l140 -491l-1 1h2l131 490h19l-146 -537q-24 -93 -48.5 -124t-76.5 -31q-13 0 -27 2v18q16 -2 30 -2q34 0 56 19q26 26 52 135zM60 591l88 139h28l88 -139h-20l-82 125l-82 -125h-20z" />
    <glyph glyph-name="Ydieresis" unicode="&#x178;" horiz-adv-x="426" 
d="M203 0v301l-200 413h21l189 -392l190 392h20l-200 -413v-301h-20zM266 783v103h20v-103h-20zM140 783v103h20v-103h-20z" />
    <glyph glyph-name="Zacute" unicode="&#x179;" horiz-adv-x="444" 
d="M20 0v20l382 676h-360v18h380v-20l-382 -676h384v-18h-404zM208 765l83 139h20l-83 -139h-20z" />
    <glyph glyph-name="zacute" unicode="&#x17a;" horiz-adv-x="296" 
d="M7 18l259 480h-249v18h269v-18l-259 -480h262v-18h-282v18zM135 591l83 139h20l-83 -139h-20z" />
    <glyph glyph-name="Zdotaccent" unicode="&#x17b;" horiz-adv-x="444" 
d="M20 0v20l382 676h-360v18h380v-20l-382 -676h384v-18h-404zM213 783v103h20v-103h-20z" />
    <glyph glyph-name="zdotaccent" unicode="&#x17c;" horiz-adv-x="296" 
d="M7 18l259 480h-249v18h269v-18l-259 -480h262v-18h-282v18zM139 609v103h20v-103h-20z" />
    <glyph glyph-name="Zcaron" unicode="&#x17d;" horiz-adv-x="444" 
d="M20 0v20l382 676h-360v18h380v-20l-382 -676h384v-18h-404zM210 765l-88 139h20l82 -125l82 125h20l-88 -139h-28z" />
    <glyph glyph-name="zcaron" unicode="&#x17e;" horiz-adv-x="296" 
d="M7 18l259 480h-249v18h269v-18l-259 -480h262v-18h-282v18zM136 591l-88 139h20l82 -125l82 125h20l-88 -139h-28z" />
    <glyph glyph-name="florin" unicode="&#x192;" horiz-adv-x="480" 
d="M176 60l67 359h-103l5 18h103l30 147q26 130 132 130q26 0 48 -6l-5 -18q-24 6 -38 6q-95 0 -118 -114l-29 -145h116l-6 -18h-115l-62 -333q-10 -56 -17.5 -89.5t-20 -70.5t-27.5 -56.5t-37.5 -32.5t-52.5 -13q-23 0 -48 5l4 19q18 -6 46 -6q53 0 80.5 53t47.5 165z" />
    <glyph glyph-name="Scommaaccent" unicode="&#x218;" horiz-adv-x="463" 
d="M31 187v31h20v-31q0 -83 46 -132t129 -49q81 0 133.5 47t52.5 139q0 39 -14 67.5t-44 48t-52.5 29t-64.5 22.5q-48 15 -76.5 27.5t-57 33.5t-41.5 52.5t-13 75.5q0 28 9.5 57t29.5 57.5t57.5 46t87.5 17.5q96 0 141 -53t45 -126v-15h-20v17q0 75 -45 117t-123 42
q-77 0 -119.5 -48.5t-42.5 -115.5q0 -45 20 -76.5t52 -48.5t70.5 -30.5t77.5 -27.5t71 -33.5t52 -55t20 -85.5q0 -80 -51.5 -139.5t-153.5 -59.5q-98 0 -147 57.5t-49 141.5zM220 -127v77h20v-79q0 -25 -9 -38t-33 -17v18q14 4 18 11.5t4 27.5z" />
    <glyph glyph-name="scommaaccent" unicode="&#x219;" horiz-adv-x="333" 
d="M169 -12q-144 0 -144 158v16h20v-19q0 -137 122 -137q61 0 91 37t30 86q0 46 -26 74t-63 42.5t-74.5 30t-63.5 47t-26 81.5q0 52 32 84q36 40 100 40q68 0 98 -41t30 -99v-14h-20v17q0 119 -109 119q-52 0 -81.5 -30.5t-29.5 -79.5q0 -44 26 -71t63.5 -41.5t74.5 -29.5
t63 -46.5t26 -81.5q0 -60 -37 -101t-102 -41zM154 -127v77h20v-79q0 -25 -9 -38t-33 -17v18q14 4 18 11.5t4 27.5z" />
    <glyph glyph-name="uni021A" unicode="&#x21a;" horiz-adv-x="408" 
d="M194 0v696h-194v18h408v-18h-194v-696h-20zM194 -127v77h20v-79q0 -25 -9 -38t-33 -17v18q14 4 18 11.5t4 27.5z" />
    <glyph glyph-name="uni021B" unicode="&#x21b;" horiz-adv-x="185" 
d="M78 79v419h-67v18h67v160h20v-160h88v-18h-88v-417q0 -36 12 -49.5t45 -13.5q26 0 39 3v-18q-15 -3 -40 -3q-38 0 -57 17.5t-19 61.5zM123 -127v77h20v-79q0 -25 -9 -38t-33 -17v18q14 4 18 11.5t4 27.5z" />
    <glyph glyph-name="circumflex" unicode="&#x2c6;" 
d="M-37 591l88 139h28l88 -139h-20l-82 125l-82 -125h-20z" />
    <glyph glyph-name="caron" unicode="&#x2c7;" 
d="M51 591l-88 139h20l82 -125l82 125h20l-88 -139h-28z" />
    <glyph glyph-name="uni02C9" unicode="&#x2c9;" 
d="M-31 669h192v-18h-192v18z" />
    <glyph glyph-name="breve" unicode="&#x2d8;" 
d="M-42 716h20q12 -93 86 -93q41 0 63 29.5t25 63.5h20q-6 -50 -33 -80.5t-76 -30.5q-45 0 -74 30t-31 81z" />
    <glyph glyph-name="dotaccent" unicode="&#x2d9;" 
d="M55 609v103h20v-103h-20z" />
    <glyph glyph-name="ring" unicode="&#x2da;" 
d="M-20 676q0 35 25 60t60 25t60 -25t25 -60q0 -36 -25 -60.5t-60 -24.5q-36 0 -60.5 24.5t-24.5 60.5zM130 676q0 29 -19 48t-46 19t-46 -19t-19 -48t19 -48t46 -19t46 19t19 48z" />
    <glyph glyph-name="ogonek" unicode="&#x2db;" 
d="M152 -148l11 -15q-30 -24 -70 -24q-36 0 -57 17.5t-21 48.5q0 64 93 121h23q-95 -68 -95 -119q0 -23 16 -36.5t41 -13.5q29 0 59 21z" />
    <glyph glyph-name="tilde" unicode="&#x2dc;" 
d="M-26 622h-20q3 28 17.5 51.5t41.5 23.5q24 0 54.5 -28.5t47.5 -28.5q34 0 41 59h20q-13 -77 -61 -77q-22 0 -57 28.5t-46 28.5q-26 0 -38 -57z" />
    <glyph glyph-name="hungarumlaut" unicode="&#x2dd;" 
d="M93 591l83 139h20l-83 -139h-20zM-36 591l83 139h20l-83 -139h-20z" />
    <glyph glyph-name="uni0394" unicode="&#x394;" horiz-adv-x="611" 
d="M573 18l-270 654l-266 -654h536zM600 0h-589l289 712h7z" />
    <glyph glyph-name="uni03A9" unicode="&#x3a9;" horiz-adv-x="722" 
d="M662 0h-215v152q93 20 144.5 91t51.5 168q0 119 -82 205.5t-200 86.5t-199.5 -86.5t-81.5 -205.5q0 -97 53 -171t145 -88v-152h-217v19h198v117q-96 26 -147 101t-51 177q0 126 87 216.5t213 90.5q127 0 213.5 -90.5t86.5 -217.5q0 -104 -49.5 -176.5t-146.5 -99.5v-118
h197v-19z" />
    <glyph glyph-name="uni03BC" unicode="&#x3bc;" horiz-adv-x="389" 
d="M338 516v-516h-20v93h-2q-7 -38 -44 -71.5t-88 -33.5q-93 0 -111 70h-2v-234h-20v321v371h20v-369q0 -80 30.5 -110.5t82.5 -30.5q19 0 39.5 8t43 26.5t37 56.5t14.5 90v329h20z" />
    <glyph glyph-name="pi" unicode="&#x3c0;" horiz-adv-x="556" 
d="M517 30v-21q-20 -13 -44 -13q-16 0 -27.5 6t-17 13t-8 22t-3 23.5t-0.5 26.5v348h-298v-435h-18v435h-72v18h482v-18h-76v-351q0 -17 0.5 -24t3.5 -20.5t11.5 -19.5t22.5 -6q25 0 44 16z" />
    <glyph glyph-name="endash" unicode="&#x2013;" horiz-adv-x="500" 
d="M0 281h500v-18h-500v18z" />
    <glyph glyph-name="emdash" unicode="&#x2014;" horiz-adv-x="1000" 
d="M1000 263h-1000v18h1000v-18z" />
    <glyph glyph-name="quoteleft" unicode="&#x2018;" horiz-adv-x="168" 
d="M73 495v103q0 79 42 116v-31l-3 -5q-4 -5 -6.5 -10.5t-6 -15t-5 -24t-1.5 -32.5v-101h-20z" />
    <glyph glyph-name="quoteright" unicode="&#x2019;" horiz-adv-x="168" 
d="M75 613v101h20v-103q0 -79 -42 -116v31q0 1 4.5 8t8 14.5t6.5 25t3 39.5z" />
    <glyph glyph-name="quotesinglbase" unicode="&#x201a;" horiz-adv-x="168" 
d="M75 -3v101h20v-103q0 -79 -42 -116v31q0 1 4.5 8t8 14.5t6.5 25t3 39.5z" />
    <glyph glyph-name="quotedblleft" unicode="&#x201c;" horiz-adv-x="259" 
d="M64 495v103q0 79 42 116v-31l-4 -5q-3 -5 -5.5 -10.5t-6 -15t-5 -24t-1.5 -32.5v-101h-20zM153 495v103q0 79 42 116v-31l-3 -5q-4 -5 -6.5 -10.5t-6 -15t-5 -24t-1.5 -32.5v-101h-20z" />
    <glyph glyph-name="quotedblright" unicode="&#x201d;" horiz-adv-x="259" 
d="M175 613v101h20v-103q0 -79 -42 -116v31q0 1 4.5 8t8 14.5t6.5 25t3 39.5zM86 613v101h20v-103q0 -79 -42 -116v31q0 1 4.5 8t8 14.5t6.5 25t3 39.5z" />
    <glyph glyph-name="quotedblbase" unicode="&#x201e;" horiz-adv-x="259" 
d="M175 -3v101h20v-103q0 -79 -42 -116v31q0 1 4.5 8t8 14.5t6.5 25t3 39.5zM86 -3v101h20v-103q0 -79 -42 -116v31q0 1 4.5 8t8 14.5t6.5 25t3 39.5z" />
    <glyph glyph-name="dagger" unicode="&#x2020;" horiz-adv-x="480" 
d="M230 -156v610h-183v18h183v242h20v-242h183v-18h-183v-610h-20z" />
    <glyph glyph-name="daggerdbl" unicode="&#x2021;" horiz-adv-x="480" 
d="M230 -156v219h-183v18h183v396h-183v18h183v219h20v-219h183v-18h-183v-396h183v-18h-183v-219h-20z" />
    <glyph glyph-name="bullet" unicode="&#x2022;" horiz-adv-x="500" 
d="M72 357q0 74 52 126t126 52t126 -52t52 -126t-52 -126t-126 -52t-126 52t-52 126z" />
    <glyph glyph-name="ellipsis" unicode="&#x2026;" horiz-adv-x="1000" 
d="M823 0v98h20v-98h-20zM490 0v98h20v-98h-20zM157 0v98h20v-98h-20z" />
    <glyph glyph-name="perthousand" unicode="&#x2030;" horiz-adv-x="926" 
d="M161 -18l298 732h20l-298 -732h-20zM852 159q0 73 -20.5 113.5t-79.5 40.5q-100 0 -100 -154q0 -153 100 -153q51 0 75.5 42.5t24.5 110.5zM632 159q0 84 32 128t88 44q124 0 120 -172q-1 -50 -13 -86t-31.5 -53.5t-38 -24.5t-37.5 -7q-120 0 -120 171zM568 159
q0 73 -20.5 113.5t-79.5 40.5q-100 0 -100 -154q0 -153 100 -153q51 0 75.5 42.5t24.5 110.5zM348 159q0 84 32 128t88 44q124 0 120 -172q-1 -50 -13 -86t-31.5 -53.5t-38 -24.5t-37.5 -7q-120 0 -120 171zM274 536q0 73 -20.5 113.5t-79.5 40.5q-100 0 -100 -154
q0 -153 100 -153q51 0 75.5 42.5t24.5 110.5zM54 536q0 84 32 128t88 44q124 0 120 -172q-1 -50 -13 -86t-31.5 -53.5t-38 -24.5t-37.5 -7q-120 0 -120 171z" />
    <glyph glyph-name="guilsinglleft" unicode="&#x2039;" horiz-adv-x="222" 
d="M160 128l-98 134v20l98 134v-29l-84 -115l84 -115v-29z" />
    <glyph glyph-name="guilsinglright" unicode="&#x203a;" horiz-adv-x="222" 
d="M62 155l84 117l-84 117v27h2l96 -134v-20l-96 -134h-2v27z" />
    <glyph glyph-name="fraction" unicode="&#x2044;" horiz-adv-x="167" 
d="M-166 -30l479 756h20l-479 -756h-20z" />
    <glyph glyph-name="Euro" unicode="&#x20ac;" horiz-adv-x="480" 
d="M440 82v-28q-57 -63 -140 -63q-58 0 -101 26.5t-66.5 72.5t-35 94t-14.5 104h-48l7 17h41q-2 34 -2 52v21q0 8 2 22h-49l8 17h42q24 292 221 292q70 0 131 -47l-10 -17q-53 46 -122 46q-53 0 -92 -24.5t-60.5 -67t-32.5 -87t-14 -95.5h266l-7 -17h-260q-2 -24 -2 -35
q0 -10 0.5 -30t0.5 -30h238l-8 -17h-229q18 -279 196 -279q79 0 140 73z" />
    <glyph glyph-name="afii61289" unicode="&#x2113;" horiz-adv-x="500" 
d="M286 -14q-44 0 -72.5 27t-28.5 88v164l-61 -71h-2l-10 10l73 83v274q0 79 27 119.5t67 40.5q36 0 58.5 -30t22.5 -83q0 -140 -157 -327v-177q0 -55 25.5 -78t59.5 -23q49 0 88 40h2l9 -11q-45 -46 -101 -46zM343 605q0 44 -19 71.5t-45 27.5q-32 0 -54 -35.5t-22 -107.5
v-258q65 79 102.5 158.5t37.5 143.5z" />
    <glyph glyph-name="trademark" unicode="&#x2122;" horiz-adv-x="1000" 
d="M855 302v394h-2l-167 -394h-19l-166 394h-2v-394h-20v412h35l163 -386l164 386h34v-412h-20zM236 302v394h-149v18h318v-18h-149v-394h-20z" />
    <glyph glyph-name="Omega" unicode="&#x2126;" horiz-adv-x="722" 
d="M662 0h-215v152q93 20 144.5 91t51.5 168q0 119 -82 205.5t-200 86.5t-199.5 -86.5t-81.5 -205.5q0 -97 53 -171t145 -88v-152h-217v19h198v117q-96 26 -147 101t-51 177q0 126 87 216.5t213 90.5q127 0 213.5 -90.5t86.5 -217.5q0 -104 -49.5 -176.5t-146.5 -99.5v-118
h197v-19z" />
    <glyph glyph-name="estimated" unicode="&#x212e;" horiz-adv-x="600" 
d="M561 259h-404v-181q59 -59 145 -59q122 0 193 120l35 -21q-46 -72 -98 -103.5t-130 -31.5q-115 0 -186.5 79t-71.5 197q0 119 71 197.5t187 78.5q115 0 186.5 -77t72.5 -199zM157 295h291v145q-63 60 -147 60t-144 -60v-145z" />
    <glyph glyph-name="partialdiff" unicode="&#x2202;" horiz-adv-x="444" 
d="M385 293q-79 111 -181 111q-76 0 -117 -59t-41 -138q0 -75 41.5 -139.5t112.5 -64.5q46 0 83.5 30t58.5 76.5t32 94t11 89.5zM408 374q0 -46 -4.5 -91.5t-18 -101t-35.5 -97t-61 -69.5t-90 -28q-78 0 -125.5 70t-47.5 152q0 87 48 149.5t133 62.5q53 0 101 -28.5
t79 -75.5q2 46 2 70q0 50 -9.5 100.5t-29.5 101t-60 82.5t-94 32q-56 0 -120 -46l-11 16q69 47 131 47q61 0 105 -34t66 -89.5t31.5 -110.5t9.5 -112z" />
    <glyph glyph-name="Delta" unicode="&#x2206;" horiz-adv-x="611" 
d="M573 18l-270 654l-266 -654h536zM600 0h-589l289 712h7z" />
    <glyph glyph-name="product" unicode="&#x220f;" horiz-adv-x="704" 
d="M611 -214h-18v982h-482v-982h-18v1000h518v-1000z" />
    <glyph glyph-name="summation" unicode="&#x2211;" horiz-adv-x="593" 
d="M548 -214h-504v18l341 486l-326 478v18h479v-18h-456l326 -478l-341 -486h481v-18z" />
    <glyph glyph-name="minus" unicode="&#x2212;" horiz-adv-x="600" 
d="M553 244h-506v18h506v-18z" />
    <glyph glyph-name="uni2215" unicode="&#x2215;" horiz-adv-x="167" 
d="M-166 -30l479 756h20l-479 -756h-20z" />
    <glyph glyph-name="uni2219" unicode="&#x2219;" horiz-adv-x="240" 
d="M83 344q0 15 11 26t26 11t26 -11t11 -26t-11 -26t-26 -11t-26 11t-11 26z" />
    <glyph glyph-name="radical" unicode="&#x221a;" horiz-adv-x="444" 
d="M444 777l-219 -996h-10l-188 386l-44 -21l-6 15l58 28l180 -373l211 962z" />
    <glyph glyph-name="infinity" unicode="&#x221e;" horiz-adv-x="722" 
d="M349 240q-115 107 -181 107q-44 0 -70 -30.5t-26 -74.5q0 -48 27 -77t74 -29q32 0 68 19t55 35.5t53 49.5zM650 242q0 44 -26.5 74.5t-70.5 30.5q-9 0 -19.5 -2t-19 -5t-20 -9t-19 -10t-19.5 -13t-18 -13t-18.5 -14.5t-16 -13.5t-16.5 -14t-14 -12q28 -27 38.5 -36.5
t38 -31t50.5 -30t47 -8.5q49 0 76 29t27 78zM668 242q0 -56 -32.5 -90.5t-87.5 -34.5q-23 0 -43.5 6t-41.5 20t-34 24t-35.5 31.5t-32.5 29.5q-12 -10 -40.5 -35.5t-44.5 -38t-44 -24.5t-57 -12q-56 0 -88.5 33.5t-32.5 90.5q0 52 33 87.5t84 35.5q17 0 36 -6t33 -12.5
t34.5 -21.5t29.5 -22.5t30.5 -26t26.5 -22.5q37 33 58 50.5t60.5 39t70.5 21.5q52 0 85 -35t33 -88z" />
    <glyph glyph-name="integral" unicode="&#x222b;" horiz-adv-x="537" 
d="M358 758q0 -10 -6.5 -16t-16.5 -6q-7 0 -11.5 2t-10.5 9.5t-8 9.5q-1 0 -3 1l-2 1q-28 0 -42 -94q-4 -44 -4 -132v-487q0 -2 0.5 -32t0 -46.5t-2.5 -48t-8 -51t-15 -40.5t-24.5 -31.5t-36.5 -10.5q-13 0 -22.5 7.5t-9.5 19.5q0 10 6 16.5t16 6.5q11 0 21.5 -11.5
t13.5 -11.5q42 0 42 180v25v507l-1 31q0 32 0.5 47t2.5 47.5t8 51.5t15.5 41t25 32.5t36.5 10.5q14 0 25 -7t11 -21z" />
    <glyph glyph-name="approxequal" unicode="&#x2248;" horiz-adv-x="593" 
d="M520 210h18q-20 -66 -70 -90q-32 -15 -45 -11q-87 20 -139 37q-112 40 -142 40q-32 0 -58 -25t-37 -58h-18q20 66 70 90q32 14 44 11q11 -3 44.5 -10.5t51.5 -12.5q10 -3 51 -18t77 -25.5t56 -10.5q34 0 60.5 24t36.5 59zM520 376h18q-20 -66 -70 -90q-32 -15 -45 -11
q-82 19 -139 37q-5 1 -38.5 13t-61 19.5t-42.5 7.5q-33 0 -58 -24.5t-37 -58.5h-18q13 42 43 71.5t71 29.5q5 0 45 -8l-45 8q60 -13 151 -43q95 -35 129 -35t60 24.5t37 59.5z" />
    <glyph glyph-name="notequal" unicode="&#x2260;" horiz-adv-x="593" 
d="M537 140h-285l-75 -140l-16 8l71 132h-177v18h186l89 166h-275v18h284l76 140l16 -8l-71 -132h177v-18h-187l-88 -166h275v-18z" />
    <glyph glyph-name="lessequal" unicode="&#x2264;" horiz-adv-x="593" 
d="M537 -3h-482v18h482v-18zM537 55l-482 205v18l482 207v-19l-461 -197l461 -195v-19z" />
    <glyph glyph-name="greaterequal" unicode="&#x2265;" horiz-adv-x="593" 
d="M537 -3h-482v18h482v-18zM537 260l-482 -205v19l461 195l-461 197v19l482 -207v-18z" />
    <glyph glyph-name="lozenge" unicode="&#x25ca;" horiz-adv-x="593" 
d="M451 356l-155 357l-154 -357l154 -357zM471 356l-171 -391h-8l-170 391l170 391h8z" />
    <glyph glyph-name="commaaccent" unicode="&#xf004;" horiz-adv-x="240" 
d="M110 -127v77h20v-79q0 -25 -9 -38t-33 -17v18q14 4 18 11.5t4 27.5z" />
    <glyph glyph-name="commaaccent" unicode="&#xf6c3;" horiz-adv-x="240" 
d="M110 -127v77h20v-79q0 -25 -9 -38t-33 -17v18q14 4 18 11.5t4 27.5z" />
    <glyph glyph-name="dotlessj" unicode="&#xf6be;" 
d="M55 -75v591h20v-589q0 -57 -22 -80t-68 -23h-13q-10 0 -13 1v18q5 -1 15 -1h12q39 0 54 18t15 65z" />
    <glyph glyph-name="dotlessj" unicode="&#xfb0f;" 
d="M55 -75v591h20v-589q0 -57 -22 -80t-68 -23h-13q-10 0 -13 1v18q5 -1 15 -1h12q39 0 54 18t15 65z" />
    <glyph glyph-name="uniF8FF" unicode="&#xf8ff;" horiz-adv-x="512" 
d="M222 117h56v67h-56v-67zM225 234h46q0 52 6 72q6 19 43 52q37 34 50 60t13 60q0 59 -35 95t-89 36q-56 0 -92 -34t-43 -103l50 -8q11 95 82 95q31 0 53.5 -24.5t22.5 -60.5q0 -20 -9.5 -37t-40.5 -46q-31 -31 -46 -59q-13 -25 -13 -81zM462 50h-412v617h412v-617z
M512 718h-512v-718h512v718z" />
    <glyph glyph-name="commaaccent.alt" horiz-adv-x="240" 
d="M125 714v-77h-20v79q0 25 9 38t33 17v-18q-14 -4 -18 -11.5t-4 -27.5z" />
    <glyph glyph-name="caron.alt" 
d="M58 575l28 139h22l-34 -139h-16z" />
    <glyph glyph-name="grave.cap" 
d="M82 765l-83 139h20l83 -139h-20z" />
    <glyph glyph-name="acute.cap" 
d="M28 765l83 139h20l-83 -139h-20z" />
    <glyph glyph-name="circumflex.cap" 
d="M-37 765l88 139h28l88 -139h-20l-82 125l-82 -125h-20z" />
    <glyph glyph-name="caron.cap" 
d="M51 765l-88 139h20l82 -125l82 125h20l-88 -139h-28z" />
    <glyph glyph-name="tilde.cap" 
d="M-26 796h-20q3 28 17.5 51.5t41.5 23.5q24 0 54.5 -28.5t47.5 -28.5q34 0 41 59h20q-13 -77 -61 -77q-22 0 -57 28.5t-46 28.5q-26 0 -38 -57z" />
    <glyph glyph-name="dieresis.cap" 
d="M118 783v103h20v-103h-20zM-8 783v103h20v-103h-20z" />
    <glyph glyph-name="macron.cap" 
d="M-31 843h192v-18h-192v18z" />
    <glyph glyph-name="breve.cap" 
d="M-42 890h20q12 -93 86 -93q41 0 63 29.5t25 63.5h20q-6 -50 -33 -80.5t-76 -30.5q-45 0 -74 30t-31 81z" />
    <glyph glyph-name="ring.cap" 
d="M-20 826q0 35 25 60t60 25t60 -25t25 -60q0 -36 -25 -60.5t-60 -24.5q-36 0 -60.5 24.5t-24.5 60.5zM130 826q0 29 -19 48t-46 19t-46 -19t-19 -48t19 -48t46 -19t46 19t19 48z" />
    <glyph glyph-name="hungarumlaut.cap" 
d="M93 765l83 139h20l-83 -139h-20zM-36 765l83 139h20l-83 -139h-20z" />
    <glyph glyph-name="dotaccent.cap" 
d="M55 783v103h20v-103h-20z" />
    </font>
</defs>
</svg>
